<?xml version="1.0" encoding="UTF-8"?>
<svg xmlns="http://www.w3.org/2000/svg" width="1800" height="920" viewBox="0 0 1800 920" role="img" aria-labelledby="title desc">
  <title id="title">STRANGE GAIT felt journey map</title>
  <desc id="desc">Evidence-bound direction ribbon across elapsed time, with structure and BPM kept separate. Direction words are editorial or sourced language; no vertical coordinate represents energy.</desc>
  <rect width="1800" height="920" fill="#0b0e12"/>
  <rect x="30" y="30" width="1740" height="850" rx="18" fill="#0d1117" stroke="#252d37"/>
  <text x="95" y="92" fill="#edf1f5" font-size="42" font-family="Inter,Arial,sans-serif" font-weight="650">STRANGE GAIT</text>
  <text x="95" y="126" fill="#8b95a2" font-size="16" font-family="Inter,Arial,sans-serif" letter-spacing="1.4">FELT MAP · DIRECTION FIRST · EVIDENCE BOUND</text>
  <text x="95" y="172" fill="#66717e" font-size="14" font-family="Inter,Arial,sans-serif">No universal energy axis. Track language describes direction/state; BPM remains measured metadata.</text>
  <text x="95" y="219" fill="#9aa4af" font-size="13" font-family="Inter,Arial,sans-serif">DIRECTION ACROSS TIME</text>
  <g><rect x="95.0" y="235" width="33.6" height="205" fill="#101419" stroke="#a493b1" stroke-width="2.5"/><text x="102.0" y="255" fill="#6f7b88" font-size="11" font-family="Inter,Arial,sans-serif">01</text></g><g><rect x="128.6" y="235" width="33.6" height="205" fill="#12161c" stroke="#3b444f" stroke-width="1"/><text x="135.6" y="255" fill="#6f7b88" font-size="11" font-family="Inter,Arial,sans-serif">02</text></g><g><rect x="162.3" y="235" width="33.6" height="205" fill="#101419" stroke="#3b444f" stroke-width="1"/><text x="169.3" y="255" fill="#6f7b88" font-size="11" font-family="Inter,Arial,sans-serif">03</text></g><g><rect x="195.9" y="235" width="33.6" height="205" fill="#12161c" stroke="#3b444f" stroke-width="1"/><text x="202.9" y="255" fill="#6f7b88" font-size="11" font-family="Inter,Arial,sans-serif">04</text></g><g><rect x="229.6" y="235" width="33.6" height="205" fill="#101419" stroke="#3b444f" stroke-width="1"/><text x="236.6" y="255" fill="#6f7b88" font-size="11" font-family="Inter,Arial,sans-serif">05</text></g><g><rect x="263.2" y="235" width="33.6" height="205" fill="#12161c" stroke="#3b444f" stroke-width="1"/><text x="270.2" y="255" fill="#6f7b88" font-size="11" font-family="Inter,Arial,sans-serif">06</text></g><g><rect x="296.9" y="235" width="33.6" height="205" fill="#101419" stroke="#3b444f" stroke-width="1"/><text x="303.9" y="255" fill="#6f7b88" font-size="11" font-family="Inter,Arial,sans-serif">07</text></g><g><rect x="330.5" y="235" width="33.6" height="205" fill="#12161c" stroke="#3b444f" stroke-width="1"/><text x="337.5" y="255" fill="#6f7b88" font-size="11" font-family="Inter,Arial,sans-serif">08</text></g><g><rect x="364.2" y="235" width="33.6" height="205" fill="#101419" stroke="#3b444f" stroke-width="1"/><text x="371.2" y="255" fill="#6f7b88" font-size="11" font-family="Inter,Arial,sans-serif">09</text></g><g><rect x="397.8" y="235" width="33.6" height="205" fill="#12161c" stroke="#3b444f" stroke-width="1"/><text x="404.8" y="255" fill="#6f7b88" font-size="11" font-family="Inter,Arial,sans-serif">10</text></g><g><rect x="431.5" y="235" width="33.6" height="205" fill="#101419" stroke="#3b444f" stroke-width="1"/><text x="438.5" y="255" fill="#6f7b88" font-size="11" font-family="Inter,Arial,sans-serif">11</text></g><g><rect x="465.1" y="235" width="33.6" height="205" fill="#12161c" stroke="#3b444f" stroke-width="1"/><text x="472.1" y="255" fill="#6f7b88" font-size="11" font-family="Inter,Arial,sans-serif">12</text></g><g><rect x="498.8" y="235" width="33.6" height="205" fill="#101419" stroke="#3b444f" stroke-width="1"/><text x="505.8" y="255" fill="#6f7b88" font-size="11" font-family="Inter,Arial,sans-serif">13</text></g><g><rect x="532.4" y="235" width="33.6" height="205" fill="#12161c" stroke="#3b444f" stroke-width="1"/><text x="539.4" y="255" fill="#6f7b88" font-size="11" font-family="Inter,Arial,sans-serif">14</text></g><g><rect x="566.0" y="235" width="33.6" height="205" fill="#101419" stroke="#3b444f" stroke-width="1"/><text x="573.0" y="255" fill="#6f7b88" font-size="11" font-family="Inter,Arial,sans-serif">15</text></g><g><rect x="599.7" y="235" width="33.6" height="205" fill="#12161c" stroke="#3b444f" stroke-width="1"/><text x="606.7" y="255" fill="#6f7b88" font-size="11" font-family="Inter,Arial,sans-serif">16</text></g><g><rect x="633.3" y="235" width="33.6" height="205" fill="#101419" stroke="#3b444f" stroke-width="1"/><text x="640.3" y="255" fill="#6f7b88" font-size="11" font-family="Inter,Arial,sans-serif">17</text></g><g><rect x="667.0" y="235" width="33.6" height="205" fill="#12161c" stroke="#3b444f" stroke-width="1"/><text x="674.0" y="255" fill="#6f7b88" font-size="11" font-family="Inter,Arial,sans-serif">18</text></g><g><rect x="700.6" y="235" width="33.6" height="205" fill="#101419" stroke="#3b444f" stroke-width="1"/><text x="707.6" y="255" fill="#6f7b88" font-size="11" font-family="Inter,Arial,sans-serif">19</text></g><g><rect x="734.3" y="235" width="33.6" height="205" fill="#12161c" stroke="#3b444f" stroke-width="1"/><text x="741.3" y="255" fill="#6f7b88" font-size="11" font-family="Inter,Arial,sans-serif">20</text></g><g><rect x="767.9" y="235" width="33.6" height="205" fill="#101419" stroke="#3b444f" stroke-width="1"/><text x="774.9" y="255" fill="#6f7b88" font-size="11" font-family="Inter,Arial,sans-serif">21</text></g><g><rect x="801.6" y="235" width="33.6" height="205" fill="#12161c" stroke="#3b444f" stroke-width="1"/><text x="808.6" y="255" fill="#6f7b88" font-size="11" font-family="Inter,Arial,sans-serif">22</text></g><g><rect x="835.2" y="235" width="33.6" height="205" fill="#101419" stroke="#3b444f" stroke-width="1"/><text x="842.2" y="255" fill="#6f7b88" font-size="11" font-family="Inter,Arial,sans-serif">23</text></g><g><rect x="868.9" y="235" width="33.6" height="205" fill="#12161c" stroke="#3b444f" stroke-width="1"/><text x="875.9" y="255" fill="#6f7b88" font-size="11" font-family="Inter,Arial,sans-serif">24</text></g><g><rect x="902.5" y="235" width="33.6" height="205" fill="#101419" stroke="#3b444f" stroke-width="1"/><text x="909.5" y="255" fill="#6f7b88" font-size="11" font-family="Inter,Arial,sans-serif">25</text></g><g><rect x="936.1" y="235" width="33.6" height="205" fill="#12161c" stroke="#3b444f" stroke-width="1"/><text x="943.1" y="255" fill="#6f7b88" font-size="11" font-family="Inter,Arial,sans-serif">26</text></g><g><rect x="969.8" y="235" width="33.6" height="205" fill="#101419" stroke="#3b444f" stroke-width="1"/><text x="976.8" y="255" fill="#6f7b88" font-size="11" font-family="Inter,Arial,sans-serif">27</text></g><g><rect x="1003.4" y="235" width="33.6" height="205" fill="#12161c" stroke="#3b444f" stroke-width="1"/><text x="1010.4" y="255" fill="#6f7b88" font-size="11" font-family="Inter,Arial,sans-serif">28</text></g><g><rect x="1037.1" y="235" width="33.6" height="205" fill="#101419" stroke="#3b444f" stroke-width="1"/><text x="1044.1" y="255" fill="#6f7b88" font-size="11" font-family="Inter,Arial,sans-serif">29</text></g><g><rect x="1070.7" y="235" width="33.6" height="205" fill="#12161c" stroke="#3b444f" stroke-width="1"/><text x="1077.7" y="255" fill="#6f7b88" font-size="11" font-family="Inter,Arial,sans-serif">30</text></g><g><rect x="1104.4" y="235" width="33.6" height="205" fill="#101419" stroke="#3b444f" stroke-width="1"/><text x="1111.4" y="255" fill="#6f7b88" font-size="11" font-family="Inter,Arial,sans-serif">31</text></g><g><rect x="1138.0" y="235" width="33.6" height="205" fill="#12161c" stroke="#3b444f" stroke-width="1"/><text x="1145.0" y="255" fill="#6f7b88" font-size="11" font-family="Inter,Arial,sans-serif">32</text></g><g><rect x="1171.7" y="235" width="33.6" height="205" fill="#101419" stroke="#3b444f" stroke-width="1"/><text x="1178.7" y="255" fill="#6f7b88" font-size="11" font-family="Inter,Arial,sans-serif">33</text></g><g><rect x="1205.3" y="235" width="33.6" height="205" fill="#12161c" stroke="#3b444f" stroke-width="1"/><text x="1212.3" y="255" fill="#6f7b88" font-size="11" font-family="Inter,Arial,sans-serif">34</text></g><g><rect x="1239.0" y="235" width="33.6" height="205" fill="#101419" stroke="#3b444f" stroke-width="1"/><text x="1246.0" y="255" fill="#6f7b88" font-size="11" font-family="Inter,Arial,sans-serif">35</text></g><g><rect x="1272.6" y="235" width="33.6" height="205" fill="#12161c" stroke="#3b444f" stroke-width="1"/><text x="1279.6" y="255" fill="#6f7b88" font-size="11" font-family="Inter,Arial,sans-serif">36</text></g><g><rect x="1306.3" y="235" width="33.6" height="205" fill="#101419" stroke="#3b444f" stroke-width="1"/><text x="1313.3" y="255" fill="#6f7b88" font-size="11" font-family="Inter,Arial,sans-serif">37</text></g><g><rect x="1339.9" y="235" width="33.6" height="205" fill="#12161c" stroke="#3b444f" stroke-width="1"/><text x="1346.9" y="255" fill="#6f7b88" font-size="11" font-family="Inter,Arial,sans-serif">38</text></g><g><rect x="1373.5" y="235" width="33.6" height="205" fill="#101419" stroke="#3b444f" stroke-width="1"/><text x="1380.5" y="255" fill="#6f7b88" font-size="11" font-family="Inter,Arial,sans-serif">39</text></g><g><rect x="1407.2" y="235" width="33.6" height="205" fill="#12202d" stroke="#6fa6d8" stroke-width="1"/><text x="1414.2" y="255" fill="#6f7b88" font-size="11" font-family="Inter,Arial,sans-serif">40</text></g><g><rect x="1440.8" y="235" width="33.6" height="205" fill="#12202d" stroke="#6fa6d8" stroke-width="1"/><text x="1447.8" y="255" fill="#6f7b88" font-size="11" font-family="Inter,Arial,sans-serif">41</text></g><g><rect x="1474.5" y="235" width="33.6" height="205" fill="#12202d" stroke="#6fa6d8" stroke-width="1"/><text x="1481.5" y="255" fill="#6f7b88" font-size="11" font-family="Inter,Arial,sans-serif">42</text></g><g><rect x="1508.1" y="235" width="33.6" height="205" fill="#101419" stroke="#a493b1" stroke-width="2.5"/><text x="1515.1" y="255" fill="#6f7b88" font-size="11" font-family="Inter,Arial,sans-serif">43</text></g><g><rect x="1541.8" y="235" width="33.6" height="205" fill="#12161c" stroke="#3b444f" stroke-width="1"/><text x="1548.8" y="255" fill="#6f7b88" font-size="11" font-family="Inter,Arial,sans-serif">44</text></g><g><rect x="1575.4" y="235" width="33.6" height="205" fill="#101419" stroke="#3b444f" stroke-width="1"/><text x="1582.4" y="255" fill="#6f7b88" font-size="11" font-family="Inter,Arial,sans-serif">45</text></g><g><rect x="1609.1" y="235" width="33.6" height="205" fill="#12161c" stroke="#3b444f" stroke-width="1"/><text x="1616.1" y="255" fill="#6f7b88" font-size="11" font-family="Inter,Arial,sans-serif">46</text></g><g><rect x="1642.7" y="235" width="33.6" height="205" fill="#101419" stroke="#3b444f" stroke-width="1"/><text x="1649.7" y="255" fill="#6f7b88" font-size="11" font-family="Inter,Arial,sans-serif">47</text></g><g><rect x="1676.4" y="235" width="33.6" height="205" fill="#12161c" stroke="#3b444f" stroke-width="1"/><text x="1683.4" y="255" fill="#6f7b88" font-size="11" font-family="Inter,Arial,sans-serif">48</text></g>
  <path d="M 1424.0 215 L 1424.0 203 L 1457.7 203 L 1457.7 215" fill="none" stroke="#6fa6d8" stroke-width="2"/><path d="M 1457.7 215 L 1457.7 203 L 1491.3 203 L 1491.3 215" fill="none" stroke="#6fa6d8" stroke-width="2"/>
  <text x="95" y="488" fill="#737e8a" font-size="12" font-family="Inter,Arial,sans-serif">STRUCTURE · SECONDARY EDITORIAL LENS</text>
  <g><rect x="95.0" y="500" width="572.0" height="62" fill="#111821"/><text x="103.0" y="537" fill="#8b96a3" font-size="13" font-family="Inter,Arial,sans-serif" letter-spacing="1">GROUND</text></g><g><rect x="667.0" y="500" width="841.1" height="62" fill="#14161d"/><text x="675.0" y="537" fill="#8b96a3" font-size="13" font-family="Inter,Arial,sans-serif" letter-spacing="1">TILT</text></g><g><rect x="1508.1" y="500" width="201.9" height="62" fill="#111821"/><text x="1516.1" y="537" fill="#8b96a3" font-size="13" font-family="Inter,Arial,sans-serif" letter-spacing="1">ESCAPE</text></g>
  <text x="95" y="640" fill="#737e8a" font-size="12" font-family="Inter,Arial,sans-serif">TEMPO · METADATA</text>
  <line x1="95" x2="1710" y1="785" y2="785" stroke="#2c343e"/>
  <polyline points="179.1,728.5 212.8,728.5 313.7,742.6 347.3,735.6 515.6,700.3 582.9,700.3 717.4,721.5 818.4,770.9 885.7,714.4 953.0,707.4 986.6,728.5 1121.2,700.3 1154.8,714.4 1323.1,714.4 1424.0,679.1 1457.7,700.3 1491.3,721.5" fill="none" stroke="#7f8b99" stroke-width="2"/><circle cx="179.1" cy="728.5" r="3" fill="#a6afb9"/><circle cx="212.8" cy="728.5" r="3" fill="#a6afb9"/><circle cx="313.7" cy="742.6" r="3" fill="#a6afb9"/><circle cx="347.3" cy="735.6" r="3" fill="#a6afb9"/><circle cx="515.6" cy="700.3" r="3" fill="#a6afb9"/><circle cx="582.9" cy="700.3" r="3" fill="#a6afb9"/><circle cx="717.4" cy="721.5" r="3" fill="#a6afb9"/><circle cx="818.4" cy="770.9" r="3" fill="#a6afb9"/><circle cx="885.7" cy="714.4" r="3" fill="#a6afb9"/><circle cx="953.0" cy="707.4" r="3" fill="#a6afb9"/><circle cx="986.6" cy="728.5" r="3" fill="#a6afb9"/><circle cx="1121.2" cy="700.3" r="3" fill="#a6afb9"/><circle cx="1154.8" cy="714.4" r="3" fill="#a6afb9"/><circle cx="1323.1" cy="714.4" r="3" fill="#a6afb9"/><circle cx="1424.0" cy="679.1" r="3" fill="#a6afb9"/><circle cx="1457.7" cy="700.3" r="3" fill="#a6afb9"/><circle cx="1491.3" cy="721.5" r="3" fill="#a6afb9"/>
  <text x="95" y="836" fill="#626d78" font-size="13" font-family="Inter,Arial,sans-serif">Direction fallback may come from existing editorial roles/labels. UNKNOWN dimensions stay unknown; see the detailed site for provenance and five-track context.</text>
</svg>