<?xml version="1.0" encoding="UTF-8"?>
<svg xmlns="http://www.w3.org/2000/svg" width="1800" height="920" viewBox="0 0 1800 920" role="img" aria-labelledby="title desc">
  <title id="title">STRANGE GAIT felt journey map</title>
  <desc id="desc">Evidence-bound direction ribbon across elapsed time, with structure and BPM kept separate. Direction words are editorial or sourced language; no vertical coordinate represents energy.</desc>
  <rect width="1800" height="920" fill="#0b0e12"/>
  <rect x="30" y="30" width="1740" height="850" rx="18" fill="#0d1117" stroke="#252d37"/>
  <text x="95" y="92" fill="#edf1f5" font-size="42" font-family="Inter,Arial,sans-serif" font-weight="650">STRANGE GAIT</text>
  <text x="95" y="126" fill="#8b95a2" font-size="16" font-family="Inter,Arial,sans-serif" letter-spacing="1.4">FELT MAP · DIRECTION FIRST · EVIDENCE BOUND</text>
  <text x="95" y="172" fill="#66717e" font-size="14" font-family="Inter,Arial,sans-serif">No universal energy axis. Track language describes direction/state; BPM remains measured metadata.</text>
  <text x="95" y="219" fill="#9aa4af" font-size="13" font-family="Inter,Arial,sans-serif">DIRECTION ACROSS TIME</text>
  <g><rect x="95.0" y="235" width="37.6" height="205" fill="#101419" stroke="#3b444f" stroke-width="1"/><text x="102.0" y="255" fill="#6f7b88" font-size="11" font-family="Inter,Arial,sans-serif">01</text></g><g><rect x="132.6" y="235" width="37.6" height="205" fill="#12161c" stroke="#3b444f" stroke-width="1"/><text x="139.6" y="255" fill="#6f7b88" font-size="11" font-family="Inter,Arial,sans-serif">02</text></g><g><rect x="170.1" y="235" width="37.6" height="205" fill="#101419" stroke="#3b444f" stroke-width="1"/><text x="177.1" y="255" fill="#6f7b88" font-size="11" font-family="Inter,Arial,sans-serif">03</text></g><g><rect x="207.7" y="235" width="37.6" height="205" fill="#12161c" stroke="#3b444f" stroke-width="1"/><text x="214.7" y="255" fill="#6f7b88" font-size="11" font-family="Inter,Arial,sans-serif">04</text></g><g><rect x="245.2" y="235" width="37.6" height="205" fill="#101419" stroke="#a493b1" stroke-width="2.5"/><text x="252.2" y="255" fill="#6f7b88" font-size="11" font-family="Inter,Arial,sans-serif">05</text></g><g><rect x="282.8" y="235" width="37.6" height="205" fill="#12161c" stroke="#3b444f" stroke-width="1"/><text x="289.8" y="255" fill="#6f7b88" font-size="11" font-family="Inter,Arial,sans-serif">06</text></g><g><rect x="320.3" y="235" width="37.6" height="205" fill="#101419" stroke="#3b444f" stroke-width="1"/><text x="327.3" y="255" fill="#6f7b88" font-size="11" font-family="Inter,Arial,sans-serif">07</text></g><g><rect x="357.9" y="235" width="37.6" height="205" fill="#12161c" stroke="#3b444f" stroke-width="1"/><text x="364.9" y="255" fill="#6f7b88" font-size="11" font-family="Inter,Arial,sans-serif">08</text></g><g><rect x="395.5" y="235" width="37.6" height="205" fill="#101419" stroke="#3b444f" stroke-width="1"/><text x="402.5" y="255" fill="#6f7b88" font-size="11" font-family="Inter,Arial,sans-serif">09</text></g><g><rect x="433.0" y="235" width="37.6" height="205" fill="#12161c" stroke="#3b444f" stroke-width="1"/><text x="440.0" y="255" fill="#6f7b88" font-size="11" font-family="Inter,Arial,sans-serif">10</text></g><g><rect x="470.6" y="235" width="37.6" height="205" fill="#101419" stroke="#3b444f" stroke-width="1"/><text x="477.6" y="255" fill="#6f7b88" font-size="11" font-family="Inter,Arial,sans-serif">11</text></g><g><rect x="508.1" y="235" width="37.6" height="205" fill="#12161c" stroke="#a493b1" stroke-width="2.5"/><text x="515.1" y="255" fill="#6f7b88" font-size="11" font-family="Inter,Arial,sans-serif">12</text></g><g><rect x="545.7" y="235" width="37.6" height="205" fill="#101419" stroke="#3b444f" stroke-width="1"/><text x="552.7" y="255" fill="#6f7b88" font-size="11" font-family="Inter,Arial,sans-serif">13</text></g><g><rect x="583.3" y="235" width="37.6" height="205" fill="#12161c" stroke="#3b444f" stroke-width="1"/><text x="590.3" y="255" fill="#6f7b88" font-size="11" font-family="Inter,Arial,sans-serif">14</text></g><g><rect x="620.8" y="235" width="37.6" height="205" fill="#101419" stroke="#3b444f" stroke-width="1"/><text x="627.8" y="255" fill="#6f7b88" font-size="11" font-family="Inter,Arial,sans-serif">15</text></g><g><rect x="658.4" y="235" width="37.6" height="205" fill="#12161c" stroke="#3b444f" stroke-width="1"/><text x="665.4" y="255" fill="#6f7b88" font-size="11" font-family="Inter,Arial,sans-serif">16</text></g><g><rect x="695.9" y="235" width="37.6" height="205" fill="#101419" stroke="#3b444f" stroke-width="1"/><text x="702.9" y="255" fill="#6f7b88" font-size="11" font-family="Inter,Arial,sans-serif">17</text></g><g><rect x="733.5" y="235" width="37.6" height="205" fill="#12161c" stroke="#3b444f" stroke-width="1"/><text x="740.5" y="255" fill="#6f7b88" font-size="11" font-family="Inter,Arial,sans-serif">18</text></g><g><rect x="771.0" y="235" width="37.6" height="205" fill="#101419" stroke="#3b444f" stroke-width="1"/><text x="778.0" y="255" fill="#6f7b88" font-size="11" font-family="Inter,Arial,sans-serif">19</text></g><g><rect x="808.6" y="235" width="37.6" height="205" fill="#12161c" stroke="#3b444f" stroke-width="1"/><text x="815.6" y="255" fill="#6f7b88" font-size="11" font-family="Inter,Arial,sans-serif">20</text></g><g><rect x="846.2" y="235" width="37.6" height="205" fill="#101419" stroke="#a493b1" stroke-width="2.5"/><text x="853.2" y="255" fill="#6f7b88" font-size="11" font-family="Inter,Arial,sans-serif">21</text></g><g><rect x="883.7" y="235" width="37.6" height="205" fill="#12161c" stroke="#3b444f" stroke-width="1"/><text x="890.7" y="255" fill="#6f7b88" font-size="11" font-family="Inter,Arial,sans-serif">22</text></g><g><rect x="921.3" y="235" width="37.6" height="205" fill="#101419" stroke="#3b444f" stroke-width="1"/><text x="928.3" y="255" fill="#6f7b88" font-size="11" font-family="Inter,Arial,sans-serif">23</text></g><g><rect x="958.8" y="235" width="37.6" height="205" fill="#12161c" stroke="#3b444f" stroke-width="1"/><text x="965.8" y="255" fill="#6f7b88" font-size="11" font-family="Inter,Arial,sans-serif">24</text></g><g><rect x="996.4" y="235" width="37.6" height="205" fill="#101419" stroke="#3b444f" stroke-width="1"/><text x="1003.4" y="255" fill="#6f7b88" font-size="11" font-family="Inter,Arial,sans-serif">25</text></g><g><rect x="1034.0" y="235" width="37.6" height="205" fill="#12161c" stroke="#3b444f" stroke-width="1"/><text x="1041.0" y="255" fill="#6f7b88" font-size="11" font-family="Inter,Arial,sans-serif">26</text></g><g><rect x="1071.5" y="235" width="37.6" height="205" fill="#101419" stroke="#3b444f" stroke-width="1"/><text x="1078.5" y="255" fill="#6f7b88" font-size="11" font-family="Inter,Arial,sans-serif">27</text></g><g><rect x="1109.1" y="235" width="37.6" height="205" fill="#12161c" stroke="#a493b1" stroke-width="2.5"/><text x="1116.1" y="255" fill="#6f7b88" font-size="11" font-family="Inter,Arial,sans-serif">28</text></g><g><rect x="1146.6" y="235" width="37.6" height="205" fill="#101419" stroke="#3b444f" stroke-width="1"/><text x="1153.6" y="255" fill="#6f7b88" font-size="11" font-family="Inter,Arial,sans-serif">29</text></g><g><rect x="1184.2" y="235" width="37.6" height="205" fill="#12161c" stroke="#3b444f" stroke-width="1"/><text x="1191.2" y="255" fill="#6f7b88" font-size="11" font-family="Inter,Arial,sans-serif">30</text></g><g><rect x="1221.7" y="235" width="37.6" height="205" fill="#101419" stroke="#a493b1" stroke-width="2.5"/><text x="1228.7" y="255" fill="#6f7b88" font-size="11" font-family="Inter,Arial,sans-serif">31</text></g><g><rect x="1259.3" y="235" width="37.6" height="205" fill="#12161c" stroke="#3b444f" stroke-width="1"/><text x="1266.3" y="255" fill="#6f7b88" font-size="11" font-family="Inter,Arial,sans-serif">32</text></g><g><rect x="1296.9" y="235" width="37.6" height="205" fill="#101419" stroke="#3b444f" stroke-width="1"/><text x="1303.9" y="255" fill="#6f7b88" font-size="11" font-family="Inter,Arial,sans-serif">33</text></g><g><rect x="1334.4" y="235" width="37.6" height="205" fill="#12161c" stroke="#a493b1" stroke-width="2.5"/><text x="1341.4" y="255" fill="#6f7b88" font-size="11" font-family="Inter,Arial,sans-serif">34</text></g><g><rect x="1372.0" y="235" width="37.6" height="205" fill="#101419" stroke="#3b444f" stroke-width="1"/><text x="1379.0" y="255" fill="#6f7b88" font-size="11" font-family="Inter,Arial,sans-serif">35</text></g><g><rect x="1409.5" y="235" width="37.6" height="205" fill="#12161c" stroke="#3b444f" stroke-width="1"/><text x="1416.5" y="255" fill="#6f7b88" font-size="11" font-family="Inter,Arial,sans-serif">36</text></g><g><rect x="1447.1" y="235" width="37.6" height="205" fill="#12202d" stroke="#6fa6d8" stroke-width="1"/><text x="1454.1" y="255" fill="#6f7b88" font-size="11" font-family="Inter,Arial,sans-serif">37</text></g><g><rect x="1484.7" y="235" width="37.6" height="205" fill="#12202d" stroke="#6fa6d8" stroke-width="1"/><text x="1491.7" y="255" fill="#6f7b88" font-size="11" font-family="Inter,Arial,sans-serif">38</text></g><g><rect x="1522.2" y="235" width="37.6" height="205" fill="#12202d" stroke="#6fa6d8" stroke-width="1"/><text x="1529.2" y="255" fill="#6f7b88" font-size="11" font-family="Inter,Arial,sans-serif">39</text></g><g><rect x="1559.8" y="235" width="37.6" height="205" fill="#12161c" stroke="#3b444f" stroke-width="1"/><text x="1566.8" y="255" fill="#6f7b88" font-size="11" font-family="Inter,Arial,sans-serif">40</text></g><g><rect x="1597.3" y="235" width="37.6" height="205" fill="#101419" stroke="#a493b1" stroke-width="2.5"/><text x="1604.3" y="255" fill="#6f7b88" font-size="11" font-family="Inter,Arial,sans-serif">41</text></g><g><rect x="1634.9" y="235" width="37.6" height="205" fill="#12161c" stroke="#3b444f" stroke-width="1"/><text x="1641.9" y="255" fill="#6f7b88" font-size="11" font-family="Inter,Arial,sans-serif">42</text></g><g><rect x="1672.4" y="235" width="37.6" height="205" fill="#101419" stroke="#3b444f" stroke-width="1"/><text x="1679.4" y="255" fill="#6f7b88" font-size="11" font-family="Inter,Arial,sans-serif">43</text></g>
  <path d="M 1465.9 215 L 1465.9 203 L 1503.4 203 L 1503.4 215" fill="none" stroke="#6fa6d8" stroke-width="2"/><path d="M 1503.4 215 L 1503.4 203 L 1541.0 203 L 1541.0 215" fill="none" stroke="#6fa6d8" stroke-width="2"/>
  <text x="95" y="488" fill="#737e8a" font-size="12" font-family="Inter,Arial,sans-serif">STRUCTURE · SECONDARY EDITORIAL LENS</text>
  <g><rect x="95.0" y="500" width="563.4" height="62" fill="#111821"/><text x="103.0" y="537" fill="#8b96a3" font-size="13" font-family="Inter,Arial,sans-serif" letter-spacing="1">GROUND</text></g><g><rect x="658.4" y="500" width="901.4" height="62" fill="#14161d"/><text x="666.4" y="537" fill="#8b96a3" font-size="13" font-family="Inter,Arial,sans-serif" letter-spacing="1">TILT</text></g><g><rect x="1559.8" y="500" width="150.2" height="62" fill="#111821"/><text x="1567.8" y="537" fill="#8b96a3" font-size="13" font-family="Inter,Arial,sans-serif" letter-spacing="1">ESCAPE</text></g>
  <text x="95" y="640" fill="#737e8a" font-size="12" font-family="Inter,Arial,sans-serif">TEMPO · METADATA</text>
  <line x1="95" x2="1710" y1="785" y2="785" stroke="#2c343e"/>
  <polyline points="151.3,728.5 188.9,728.5 301.6,742.6 339.1,735.6 489.4,700.3 564.5,700.3 714.7,721.5 827.4,770.9 902.5,714.4 977.6,707.4 1015.2,728.5 1165.4,700.3 1203.0,714.4 1390.8,714.4 1465.9,679.1 1503.4,700.3 1541.0,721.5" fill="none" stroke="#7f8b99" stroke-width="2"/><circle cx="151.3" cy="728.5" r="3" fill="#a6afb9"/><circle cx="188.9" cy="728.5" r="3" fill="#a6afb9"/><circle cx="301.6" cy="742.6" r="3" fill="#a6afb9"/><circle cx="339.1" cy="735.6" r="3" fill="#a6afb9"/><circle cx="489.4" cy="700.3" r="3" fill="#a6afb9"/><circle cx="564.5" cy="700.3" r="3" fill="#a6afb9"/><circle cx="714.7" cy="721.5" r="3" fill="#a6afb9"/><circle cx="827.4" cy="770.9" r="3" fill="#a6afb9"/><circle cx="902.5" cy="714.4" r="3" fill="#a6afb9"/><circle cx="977.6" cy="707.4" r="3" fill="#a6afb9"/><circle cx="1015.2" cy="728.5" r="3" fill="#a6afb9"/><circle cx="1165.4" cy="700.3" r="3" fill="#a6afb9"/><circle cx="1203.0" cy="714.4" r="3" fill="#a6afb9"/><circle cx="1390.8" cy="714.4" r="3" fill="#a6afb9"/><circle cx="1465.9" cy="679.1" r="3" fill="#a6afb9"/><circle cx="1503.4" cy="700.3" r="3" fill="#a6afb9"/><circle cx="1541.0" cy="721.5" r="3" fill="#a6afb9"/>
  <text x="95" y="836" fill="#626d78" font-size="13" font-family="Inter,Arial,sans-serif">Direction fallback may come from existing editorial roles/labels. UNKNOWN dimensions stay unknown; see the detailed site for provenance and five-track context.</text>
</svg>