<?xml version="1.0" encoding="UTF-8"?>
<svg xmlns="http://www.w3.org/2000/svg" width="1800" height="920" viewBox="0 0 1800 920" role="img" aria-labelledby="title desc">
  <title id="title">STRANGE GAIT felt journey map</title>
  <desc id="desc">Evidence-bound direction ribbon across elapsed time, with structure and BPM kept separate. Direction words are editorial or sourced language; no vertical coordinate represents energy.</desc>
  <rect width="1800" height="920" fill="#0b0e12"/>
  <rect x="30" y="30" width="1740" height="850" rx="18" fill="#0d1117" stroke="#252d37"/>
  <text x="95" y="92" fill="#edf1f5" font-size="42" font-family="Inter,Arial,sans-serif" font-weight="650">STRANGE GAIT</text>
  <text x="95" y="126" fill="#8b95a2" font-size="16" font-family="Inter,Arial,sans-serif" letter-spacing="1.4">FELT MAP · DIRECTION FIRST · EVIDENCE BOUND</text>
  <text x="95" y="172" fill="#66717e" font-size="14" font-family="Inter,Arial,sans-serif">No universal energy axis. Track language describes direction/state; BPM remains measured metadata.</text>
  <text x="95" y="219" fill="#9aa4af" font-size="13" font-family="Inter,Arial,sans-serif">DIRECTION ACROSS TIME</text>
  <g><rect x="95.0" y="235" width="67.3" height="205" fill="#101419" stroke="#a493b1" stroke-width="2.5"/><text x="102.0" y="255" fill="#6f7b88" font-size="11" font-family="Inter,Arial,sans-serif">01</text><text x="102.0" y="269" fill="#d7dce2" font-size="12" font-family="Inter,Arial,sans-serif">transfor…</text></g><g><rect x="162.3" y="235" width="67.3" height="205" fill="#12161c" stroke="#3b444f" stroke-width="1"/><text x="169.3" y="255" fill="#6f7b88" font-size="11" font-family="Inter,Arial,sans-serif">02</text><text x="169.3" y="327" fill="#d7dce2" font-size="12" font-family="Inter,Arial,sans-serif">Ground —…</text></g><g><rect x="229.6" y="235" width="67.3" height="205" fill="#101419" stroke="#3b444f" stroke-width="1"/><text x="236.6" y="255" fill="#6f7b88" font-size="11" font-family="Inter,Arial,sans-serif">03</text><text x="236.6" y="385" fill="#d7dce2" font-size="12" font-family="Inter,Arial,sans-serif">Ground —…</text></g><g><rect x="296.9" y="235" width="67.3" height="205" fill="#12161c" stroke="#a493b1" stroke-width="2.5"/><text x="303.9" y="255" fill="#6f7b88" font-size="11" font-family="Inter,Arial,sans-serif">04</text><text x="303.9" y="269" fill="#d7dce2" font-size="12" font-family="Inter,Arial,sans-serif">triplet …</text></g><g><rect x="364.2" y="235" width="67.3" height="205" fill="#101419" stroke="#3b444f" stroke-width="1"/><text x="371.2" y="255" fill="#6f7b88" font-size="11" font-family="Inter,Arial,sans-serif">05</text><text x="371.2" y="327" fill="#d7dce2" font-size="12" font-family="Inter,Arial,sans-serif">Ground —…</text></g><g><rect x="431.5" y="235" width="67.3" height="205" fill="#12161c" stroke="#a493b1" stroke-width="2.5"/><text x="438.5" y="255" fill="#6f7b88" font-size="11" font-family="Inter,Arial,sans-serif">06</text><text x="438.5" y="385" fill="#d7dce2" font-size="12" font-family="Inter,Arial,sans-serif">swung fu…</text></g><g><rect x="498.8" y="235" width="67.3" height="205" fill="#101419" stroke="#a493b1" stroke-width="2.5"/><text x="505.8" y="255" fill="#6f7b88" font-size="11" font-family="Inter,Arial,sans-serif">07</text><text x="505.8" y="269" fill="#d7dce2" font-size="12" font-family="Inter,Arial,sans-serif">rumble t…</text></g><g><rect x="566.0" y="235" width="67.3" height="205" fill="#12161c" stroke="#3b444f" stroke-width="1"/><text x="573.0" y="255" fill="#6f7b88" font-size="11" font-family="Inter,Arial,sans-serif">08</text><text x="573.0" y="327" fill="#d7dce2" font-size="12" font-family="Inter,Arial,sans-serif">physical…</text></g><g><rect x="633.3" y="235" width="67.3" height="205" fill="#101419" stroke="#3b444f" stroke-width="1"/><text x="640.3" y="255" fill="#6f7b88" font-size="11" font-family="Inter,Arial,sans-serif">09</text><text x="640.3" y="385" fill="#d7dce2" font-size="12" font-family="Inter,Arial,sans-serif">intensif…</text></g><g><rect x="700.6" y="235" width="67.3" height="205" fill="#12161c" stroke="#3b444f" stroke-width="1"/><text x="707.6" y="255" fill="#6f7b88" font-size="11" font-family="Inter,Arial,sans-serif">10</text><text x="707.6" y="269" fill="#d7dce2" font-size="12" font-family="Inter,Arial,sans-serif">rhythmic…</text></g><g><rect x="767.9" y="235" width="67.3" height="205" fill="#101419" stroke="#3b444f" stroke-width="1"/><text x="774.9" y="255" fill="#6f7b88" font-size="11" font-family="Inter,Arial,sans-serif">11</text><text x="774.9" y="327" fill="#d7dce2" font-size="12" font-family="Inter,Arial,sans-serif">dubwise …</text></g><g><rect x="835.2" y="235" width="67.3" height="205" fill="#12161c" stroke="#3b444f" stroke-width="1"/><text x="842.2" y="255" fill="#6f7b88" font-size="11" font-family="Inter,Arial,sans-serif">12</text><text x="842.2" y="385" fill="#d7dce2" font-size="12" font-family="Inter,Arial,sans-serif">broken b…</text></g><g><rect x="902.5" y="235" width="67.3" height="205" fill="#101419" stroke="#3b444f" stroke-width="1"/><text x="909.5" y="255" fill="#6f7b88" font-size="11" font-family="Inter,Arial,sans-serif">13</text><text x="909.5" y="269" fill="#d7dce2" font-size="12" font-family="Inter,Arial,sans-serif">funk re …</text></g><g><rect x="969.8" y="235" width="67.3" height="205" fill="#12161c" stroke="#3b444f" stroke-width="1"/><text x="976.8" y="255" fill="#6f7b88" font-size="11" font-family="Inter,Arial,sans-serif">14</text><text x="976.8" y="327" fill="#d7dce2" font-size="12" font-family="Inter,Arial,sans-serif">crooked …</text></g><g><rect x="1037.1" y="235" width="67.3" height="205" fill="#101419" stroke="#a493b1" stroke-width="2.5"/><text x="1044.1" y="255" fill="#6f7b88" font-size="11" font-family="Inter,Arial,sans-serif">15</text><text x="1044.1" y="385" fill="#d7dce2" font-size="12" font-family="Inter,Arial,sans-serif">uncontai…</text></g><g><rect x="1104.4" y="235" width="67.3" height="205" fill="#12161c" stroke="#3b444f" stroke-width="1"/><text x="1111.4" y="255" fill="#6f7b88" font-size="11" font-family="Inter,Arial,sans-serif">16</text><text x="1111.4" y="269" fill="#d7dce2" font-size="12" font-family="Inter,Arial,sans-serif">driving …</text></g><g><rect x="1171.7" y="235" width="67.3" height="205" fill="#101419" stroke="#3b444f" stroke-width="1"/><text x="1178.7" y="255" fill="#6f7b88" font-size="11" font-family="Inter,Arial,sans-serif">17</text><text x="1178.7" y="327" fill="#d7dce2" font-size="12" font-family="Inter,Arial,sans-serif">unpredic…</text></g><g><rect x="1239.0" y="235" width="67.3" height="205" fill="#12161c" stroke="#a493b1" stroke-width="2.5"/><text x="1246.0" y="255" fill="#6f7b88" font-size="11" font-family="Inter,Arial,sans-serif">18</text><text x="1246.0" y="385" fill="#d7dce2" font-size="12" font-family="Inter,Arial,sans-serif">foregrou…</text></g><g><rect x="1306.3" y="235" width="67.3" height="205" fill="#101419" stroke="#a493b1" stroke-width="2.5"/><text x="1313.3" y="255" fill="#6f7b88" font-size="11" font-family="Inter,Arial,sans-serif">19</text><text x="1313.3" y="269" fill="#d7dce2" font-size="12" font-family="Inter,Arial,sans-serif">machine …</text></g><g><rect x="1373.5" y="235" width="67.3" height="205" fill="#12161c" stroke="#3b444f" stroke-width="1"/><text x="1380.5" y="255" fill="#6f7b88" font-size="11" font-family="Inter,Arial,sans-serif">20</text><text x="1380.5" y="327" fill="#d7dce2" font-size="12" font-family="Inter,Arial,sans-serif">groove c…</text></g><g><rect x="1440.8" y="235" width="67.3" height="205" fill="#12202d" stroke="#6fa6d8" stroke-width="1"/><text x="1447.8" y="255" fill="#6f7b88" font-size="11" font-family="Inter,Arial,sans-serif">21</text><text x="1447.8" y="385" fill="#d7dce2" font-size="12" font-family="Inter,Arial,sans-serif">Tilt — p…</text></g><g><rect x="1508.1" y="235" width="67.3" height="205" fill="#12202d" stroke="#6fa6d8" stroke-width="1"/><text x="1515.1" y="255" fill="#6f7b88" font-size="11" font-family="Inter,Arial,sans-serif">22</text><text x="1515.1" y="269" fill="#d7dce2" font-size="12" font-family="Inter,Arial,sans-serif">Tilt — l…</text></g><g><rect x="1575.4" y="235" width="67.3" height="205" fill="#12202d" stroke="#6fa6d8" stroke-width="1"/><text x="1582.4" y="255" fill="#6f7b88" font-size="11" font-family="Inter,Arial,sans-serif">23</text><text x="1582.4" y="327" fill="#d7dce2" font-size="12" font-family="Inter,Arial,sans-serif">Tilt — l…</text></g><g><rect x="1642.7" y="235" width="67.3" height="205" fill="#12161c" stroke="#a493b1" stroke-width="2.5"/><text x="1649.7" y="255" fill="#6f7b88" font-size="11" font-family="Inter,Arial,sans-serif">24</text><text x="1649.7" y="385" fill="#d7dce2" font-size="12" font-family="Inter,Arial,sans-serif">low slun…</text></g>
  <path d="M 1474.5 215 L 1474.5 203 L 1541.8 203 L 1541.8 215" fill="none" stroke="#6fa6d8" stroke-width="2"/><path d="M 1541.8 215 L 1541.8 203 L 1609.1 203 L 1609.1 215" fill="none" stroke="#6fa6d8" stroke-width="2"/>
  <text x="95" y="488" fill="#737e8a" font-size="12" font-family="Inter,Arial,sans-serif">STRUCTURE · SECONDARY EDITORIAL LENS</text>
  <g><rect x="95.0" y="500" width="605.6" height="62" fill="#111821"/><text x="103.0" y="537" fill="#8b96a3" font-size="13" font-family="Inter,Arial,sans-serif" letter-spacing="1">GROUND</text></g><g><rect x="700.6" y="500" width="942.1" height="62" fill="#14161d"/><text x="708.6" y="537" fill="#8b96a3" font-size="13" font-family="Inter,Arial,sans-serif" letter-spacing="1">TILT</text></g><g><rect x="1642.7" y="500" width="67.3" height="62" fill="#111821"/><text x="1650.7" y="537" fill="#8b96a3" font-size="13" font-family="Inter,Arial,sans-serif" letter-spacing="1">ESCAPE</text></g>
  <text x="95" y="640" fill="#737e8a" font-size="12" font-family="Inter,Arial,sans-serif">TEMPO · METADATA</text>
  <line x1="95" x2="1710" y1="785" y2="785" stroke="#2c343e"/>
  <polyline points="195.9,728.5 263.2,728.5 397.8,742.6 465.1,735.6 599.7,700.3 667.0,700.3 734.3,721.5 801.6,770.9 868.9,714.4 936.1,707.4 1003.4,728.5 1138.0,700.3 1205.3,714.4 1407.2,714.4 1474.5,679.1 1541.8,700.3 1609.1,721.5" fill="none" stroke="#7f8b99" stroke-width="2"/><circle cx="195.9" cy="728.5" r="3" fill="#a6afb9"/><circle cx="263.2" cy="728.5" r="3" fill="#a6afb9"/><circle cx="397.8" cy="742.6" r="3" fill="#a6afb9"/><circle cx="465.1" cy="735.6" r="3" fill="#a6afb9"/><circle cx="599.7" cy="700.3" r="3" fill="#a6afb9"/><circle cx="667.0" cy="700.3" r="3" fill="#a6afb9"/><circle cx="734.3" cy="721.5" r="3" fill="#a6afb9"/><circle cx="801.6" cy="770.9" r="3" fill="#a6afb9"/><circle cx="868.9" cy="714.4" r="3" fill="#a6afb9"/><circle cx="936.1" cy="707.4" r="3" fill="#a6afb9"/><circle cx="1003.4" cy="728.5" r="3" fill="#a6afb9"/><circle cx="1138.0" cy="700.3" r="3" fill="#a6afb9"/><circle cx="1205.3" cy="714.4" r="3" fill="#a6afb9"/><circle cx="1407.2" cy="714.4" r="3" fill="#a6afb9"/><circle cx="1474.5" cy="679.1" r="3" fill="#a6afb9"/><circle cx="1541.8" cy="700.3" r="3" fill="#a6afb9"/><circle cx="1609.1" cy="721.5" r="3" fill="#a6afb9"/>
  <text x="95" y="836" fill="#626d78" font-size="13" font-family="Inter,Arial,sans-serif">Direction fallback may come from existing editorial roles/labels. UNKNOWN dimensions stay unknown; see the detailed site for provenance and five-track context.</text>
</svg>