<?xml version="1.0" encoding="UTF-8"?>
<svg xmlns="http://www.w3.org/2000/svg" width="1800" height="920" viewBox="0 0 1800 920" role="img" aria-labelledby="title desc">
  <title id="title">STRANGE GAIT felt journey map</title>
  <desc id="desc">Evidence-bound direction ribbon across elapsed time, with structure and BPM kept separate. Direction words are editorial or sourced language; no vertical coordinate represents energy.</desc>
  <rect width="1800" height="920" fill="#0b0e12"/>
  <rect x="30" y="30" width="1740" height="850" rx="18" fill="#0d1117" stroke="#252d37"/>
  <text x="95" y="92" fill="#edf1f5" font-size="42" font-family="Inter,Arial,sans-serif" font-weight="650">STRANGE GAIT</text>
  <text x="95" y="126" fill="#8b95a2" font-size="16" font-family="Inter,Arial,sans-serif" letter-spacing="1.4">FELT MAP · DIRECTION FIRST · EVIDENCE BOUND</text>
  <text x="95" y="172" fill="#66717e" font-size="14" font-family="Inter,Arial,sans-serif">No universal energy axis. Track language describes direction/state; BPM remains measured metadata.</text>
  <text x="95" y="219" fill="#9aa4af" font-size="13" font-family="Inter,Arial,sans-serif">DIRECTION ACROSS TIME</text>
  <g><rect x="95.0" y="235" width="27.4" height="205" fill="#101419" stroke="#3b444f" stroke-width="1"/><text x="102.0" y="255" fill="#6f7b88" font-size="11" font-family="Inter,Arial,sans-serif">01</text></g><g><rect x="122.4" y="235" width="27.4" height="205" fill="#12161c" stroke="#3b444f" stroke-width="1"/><text x="129.4" y="255" fill="#6f7b88" font-size="11" font-family="Inter,Arial,sans-serif">02</text></g><g><rect x="149.7" y="235" width="27.4" height="205" fill="#101419" stroke="#3b444f" stroke-width="1"/><text x="156.7" y="255" fill="#6f7b88" font-size="11" font-family="Inter,Arial,sans-serif">03</text></g><g><rect x="177.1" y="235" width="27.4" height="205" fill="#12161c" stroke="#3b444f" stroke-width="1"/><text x="184.1" y="255" fill="#6f7b88" font-size="11" font-family="Inter,Arial,sans-serif">04</text></g><g><rect x="204.5" y="235" width="27.4" height="205" fill="#101419" stroke="#3b444f" stroke-width="1"/><text x="211.5" y="255" fill="#6f7b88" font-size="11" font-family="Inter,Arial,sans-serif">05</text></g><g><rect x="231.9" y="235" width="27.4" height="205" fill="#12161c" stroke="#3b444f" stroke-width="1"/><text x="238.9" y="255" fill="#6f7b88" font-size="11" font-family="Inter,Arial,sans-serif">06</text></g><g><rect x="259.2" y="235" width="27.4" height="205" fill="#101419" stroke="#3b444f" stroke-width="1"/><text x="266.2" y="255" fill="#6f7b88" font-size="11" font-family="Inter,Arial,sans-serif">07</text></g><g><rect x="286.6" y="235" width="27.4" height="205" fill="#12161c" stroke="#3b444f" stroke-width="1"/><text x="293.6" y="255" fill="#6f7b88" font-size="11" font-family="Inter,Arial,sans-serif">08</text></g><g><rect x="314.0" y="235" width="27.4" height="205" fill="#101419" stroke="#3b444f" stroke-width="1"/><text x="321.0" y="255" fill="#6f7b88" font-size="11" font-family="Inter,Arial,sans-serif">09</text></g><g><rect x="341.4" y="235" width="27.4" height="205" fill="#12161c" stroke="#3b444f" stroke-width="1"/><text x="348.4" y="255" fill="#6f7b88" font-size="11" font-family="Inter,Arial,sans-serif">10</text></g><g><rect x="368.7" y="235" width="27.4" height="205" fill="#101419" stroke="#3b444f" stroke-width="1"/><text x="375.7" y="255" fill="#6f7b88" font-size="11" font-family="Inter,Arial,sans-serif">11</text></g><g><rect x="396.1" y="235" width="27.4" height="205" fill="#12161c" stroke="#3b444f" stroke-width="1"/><text x="403.1" y="255" fill="#6f7b88" font-size="11" font-family="Inter,Arial,sans-serif">12</text></g><g><rect x="423.5" y="235" width="27.4" height="205" fill="#101419" stroke="#3b444f" stroke-width="1"/><text x="430.5" y="255" fill="#6f7b88" font-size="11" font-family="Inter,Arial,sans-serif">13</text></g><g><rect x="450.8" y="235" width="27.4" height="205" fill="#12161c" stroke="#3b444f" stroke-width="1"/><text x="457.8" y="255" fill="#6f7b88" font-size="11" font-family="Inter,Arial,sans-serif">14</text></g><g><rect x="478.2" y="235" width="27.4" height="205" fill="#101419" stroke="#3b444f" stroke-width="1"/><text x="485.2" y="255" fill="#6f7b88" font-size="11" font-family="Inter,Arial,sans-serif">15</text></g><g><rect x="505.6" y="235" width="27.4" height="205" fill="#12161c" stroke="#3b444f" stroke-width="1"/><text x="512.6" y="255" fill="#6f7b88" font-size="11" font-family="Inter,Arial,sans-serif">16</text></g><g><rect x="533.0" y="235" width="27.4" height="205" fill="#101419" stroke="#a493b1" stroke-width="2.5"/><text x="540.0" y="255" fill="#6f7b88" font-size="11" font-family="Inter,Arial,sans-serif">17</text></g><g><rect x="560.3" y="235" width="27.4" height="205" fill="#12161c" stroke="#3b444f" stroke-width="1"/><text x="567.3" y="255" fill="#6f7b88" font-size="11" font-family="Inter,Arial,sans-serif">18</text></g><g><rect x="587.7" y="235" width="27.4" height="205" fill="#101419" stroke="#3b444f" stroke-width="1"/><text x="594.7" y="255" fill="#6f7b88" font-size="11" font-family="Inter,Arial,sans-serif">19</text></g><g><rect x="615.1" y="235" width="27.4" height="205" fill="#12161c" stroke="#a493b1" stroke-width="2.5"/><text x="622.1" y="255" fill="#6f7b88" font-size="11" font-family="Inter,Arial,sans-serif">20</text></g><g><rect x="642.5" y="235" width="27.4" height="205" fill="#101419" stroke="#3b444f" stroke-width="1"/><text x="649.5" y="255" fill="#6f7b88" font-size="11" font-family="Inter,Arial,sans-serif">21</text></g><g><rect x="669.8" y="235" width="27.4" height="205" fill="#12161c" stroke="#3b444f" stroke-width="1"/><text x="676.8" y="255" fill="#6f7b88" font-size="11" font-family="Inter,Arial,sans-serif">22</text></g><g><rect x="697.2" y="235" width="27.4" height="205" fill="#101419" stroke="#3b444f" stroke-width="1"/><text x="704.2" y="255" fill="#6f7b88" font-size="11" font-family="Inter,Arial,sans-serif">23</text></g><g><rect x="724.6" y="235" width="27.4" height="205" fill="#12161c" stroke="#3b444f" stroke-width="1"/><text x="731.6" y="255" fill="#6f7b88" font-size="11" font-family="Inter,Arial,sans-serif">24</text></g><g><rect x="751.9" y="235" width="27.4" height="205" fill="#101419" stroke="#3b444f" stroke-width="1"/><text x="758.9" y="255" fill="#6f7b88" font-size="11" font-family="Inter,Arial,sans-serif">25</text></g><g><rect x="779.3" y="235" width="27.4" height="205" fill="#12161c" stroke="#3b444f" stroke-width="1"/><text x="786.3" y="255" fill="#6f7b88" font-size="11" font-family="Inter,Arial,sans-serif">26</text></g><g><rect x="806.7" y="235" width="27.4" height="205" fill="#101419" stroke="#3b444f" stroke-width="1"/><text x="813.7" y="255" fill="#6f7b88" font-size="11" font-family="Inter,Arial,sans-serif">27</text></g><g><rect x="834.1" y="235" width="27.4" height="205" fill="#12161c" stroke="#3b444f" stroke-width="1"/><text x="841.1" y="255" fill="#6f7b88" font-size="11" font-family="Inter,Arial,sans-serif">28</text></g><g><rect x="861.4" y="235" width="27.4" height="205" fill="#101419" stroke="#a493b1" stroke-width="2.5"/><text x="868.4" y="255" fill="#6f7b88" font-size="11" font-family="Inter,Arial,sans-serif">29</text></g><g><rect x="888.8" y="235" width="27.4" height="205" fill="#12161c" stroke="#3b444f" stroke-width="1"/><text x="895.8" y="255" fill="#6f7b88" font-size="11" font-family="Inter,Arial,sans-serif">30</text></g><g><rect x="916.2" y="235" width="27.4" height="205" fill="#101419" stroke="#3b444f" stroke-width="1"/><text x="923.2" y="255" fill="#6f7b88" font-size="11" font-family="Inter,Arial,sans-serif">31</text></g><g><rect x="943.6" y="235" width="27.4" height="205" fill="#12161c" stroke="#3b444f" stroke-width="1"/><text x="950.6" y="255" fill="#6f7b88" font-size="11" font-family="Inter,Arial,sans-serif">32</text></g><g><rect x="970.9" y="235" width="27.4" height="205" fill="#101419" stroke="#3b444f" stroke-width="1"/><text x="977.9" y="255" fill="#6f7b88" font-size="11" font-family="Inter,Arial,sans-serif">33</text></g><g><rect x="998.3" y="235" width="27.4" height="205" fill="#12161c" stroke="#3b444f" stroke-width="1"/><text x="1005.3" y="255" fill="#6f7b88" font-size="11" font-family="Inter,Arial,sans-serif">34</text></g><g><rect x="1025.7" y="235" width="27.4" height="205" fill="#101419" stroke="#3b444f" stroke-width="1"/><text x="1032.7" y="255" fill="#6f7b88" font-size="11" font-family="Inter,Arial,sans-serif">35</text></g><g><rect x="1053.1" y="235" width="27.4" height="205" fill="#12161c" stroke="#a493b1" stroke-width="2.5"/><text x="1060.1" y="255" fill="#6f7b88" font-size="11" font-family="Inter,Arial,sans-serif">36</text></g><g><rect x="1080.4" y="235" width="27.4" height="205" fill="#101419" stroke="#a493b1" stroke-width="2.5"/><text x="1087.4" y="255" fill="#6f7b88" font-size="11" font-family="Inter,Arial,sans-serif">37</text></g><g><rect x="1107.8" y="235" width="27.4" height="205" fill="#12161c" stroke="#3b444f" stroke-width="1"/><text x="1114.8" y="255" fill="#6f7b88" font-size="11" font-family="Inter,Arial,sans-serif">38</text></g><g><rect x="1135.2" y="235" width="27.4" height="205" fill="#101419" stroke="#3b444f" stroke-width="1"/><text x="1142.2" y="255" fill="#6f7b88" font-size="11" font-family="Inter,Arial,sans-serif">39</text></g><g><rect x="1162.5" y="235" width="27.4" height="205" fill="#12161c" stroke="#3b444f" stroke-width="1"/><text x="1169.5" y="255" fill="#6f7b88" font-size="11" font-family="Inter,Arial,sans-serif">40</text></g><g><rect x="1189.9" y="235" width="27.4" height="205" fill="#101419" stroke="#3b444f" stroke-width="1"/><text x="1196.9" y="255" fill="#6f7b88" font-size="11" font-family="Inter,Arial,sans-serif">41</text></g><g><rect x="1217.3" y="235" width="27.4" height="205" fill="#12161c" stroke="#3b444f" stroke-width="1"/><text x="1224.3" y="255" fill="#6f7b88" font-size="11" font-family="Inter,Arial,sans-serif">42</text></g><g><rect x="1244.7" y="235" width="27.4" height="205" fill="#101419" stroke="#3b444f" stroke-width="1"/><text x="1251.7" y="255" fill="#6f7b88" font-size="11" font-family="Inter,Arial,sans-serif">43</text></g><g><rect x="1272.0" y="235" width="27.4" height="205" fill="#12161c" stroke="#3b444f" stroke-width="1"/><text x="1279.0" y="255" fill="#6f7b88" font-size="11" font-family="Inter,Arial,sans-serif">44</text></g><g><rect x="1299.4" y="235" width="27.4" height="205" fill="#101419" stroke="#3b444f" stroke-width="1"/><text x="1306.4" y="255" fill="#6f7b88" font-size="11" font-family="Inter,Arial,sans-serif">45</text></g><g><rect x="1326.8" y="235" width="27.4" height="205" fill="#12161c" stroke="#3b444f" stroke-width="1"/><text x="1333.8" y="255" fill="#6f7b88" font-size="11" font-family="Inter,Arial,sans-serif">46</text></g><g><rect x="1354.2" y="235" width="27.4" height="205" fill="#101419" stroke="#3b444f" stroke-width="1"/><text x="1361.2" y="255" fill="#6f7b88" font-size="11" font-family="Inter,Arial,sans-serif">47</text></g><g><rect x="1381.5" y="235" width="27.4" height="205" fill="#12161c" stroke="#3b444f" stroke-width="1"/><text x="1388.5" y="255" fill="#6f7b88" font-size="11" font-family="Inter,Arial,sans-serif">48</text></g><g><rect x="1408.9" y="235" width="27.4" height="205" fill="#12202d" stroke="#6fa6d8" stroke-width="1"/><text x="1415.9" y="255" fill="#6f7b88" font-size="11" font-family="Inter,Arial,sans-serif">49</text></g><g><rect x="1436.3" y="235" width="27.4" height="205" fill="#12202d" stroke="#6fa6d8" stroke-width="1"/><text x="1443.3" y="255" fill="#6f7b88" font-size="11" font-family="Inter,Arial,sans-serif">50</text></g><g><rect x="1463.6" y="235" width="27.4" height="205" fill="#12202d" stroke="#6fa6d8" stroke-width="1"/><text x="1470.6" y="255" fill="#6f7b88" font-size="11" font-family="Inter,Arial,sans-serif">51</text></g><g><rect x="1491.0" y="235" width="27.4" height="205" fill="#12161c" stroke="#3b444f" stroke-width="1"/><text x="1498.0" y="255" fill="#6f7b88" font-size="11" font-family="Inter,Arial,sans-serif">52</text></g><g><rect x="1518.4" y="235" width="27.4" height="205" fill="#101419" stroke="#3b444f" stroke-width="1"/><text x="1525.4" y="255" fill="#6f7b88" font-size="11" font-family="Inter,Arial,sans-serif">53</text></g><g><rect x="1545.8" y="235" width="27.4" height="205" fill="#12161c" stroke="#a493b1" stroke-width="2.5"/><text x="1552.8" y="255" fill="#6f7b88" font-size="11" font-family="Inter,Arial,sans-serif">54</text></g><g><rect x="1573.1" y="235" width="27.4" height="205" fill="#101419" stroke="#3b444f" stroke-width="1"/><text x="1580.1" y="255" fill="#6f7b88" font-size="11" font-family="Inter,Arial,sans-serif">55</text></g><g><rect x="1600.5" y="235" width="27.4" height="205" fill="#12161c" stroke="#3b444f" stroke-width="1"/><text x="1607.5" y="255" fill="#6f7b88" font-size="11" font-family="Inter,Arial,sans-serif">56</text></g><g><rect x="1627.9" y="235" width="27.4" height="205" fill="#101419" stroke="#3b444f" stroke-width="1"/><text x="1634.9" y="255" fill="#6f7b88" font-size="11" font-family="Inter,Arial,sans-serif">57</text></g><g><rect x="1655.3" y="235" width="27.4" height="205" fill="#12161c" stroke="#3b444f" stroke-width="1"/><text x="1662.3" y="255" fill="#6f7b88" font-size="11" font-family="Inter,Arial,sans-serif">58</text></g><g><rect x="1682.6" y="235" width="27.4" height="205" fill="#101419" stroke="#3b444f" stroke-width="1"/><text x="1689.6" y="255" fill="#6f7b88" font-size="11" font-family="Inter,Arial,sans-serif">59</text></g>
  <path d="M 1422.6 215 L 1422.6 203 L 1450.0 203 L 1450.0 215" fill="none" stroke="#6fa6d8" stroke-width="2"/><path d="M 1450.0 215 L 1450.0 203 L 1477.3 203 L 1477.3 215" fill="none" stroke="#6fa6d8" stroke-width="2"/>
  <text x="95" y="488" fill="#737e8a" font-size="12" font-family="Inter,Arial,sans-serif">STRUCTURE · SECONDARY EDITORIAL LENS</text>
  <g><rect x="95.0" y="500" width="602.2" height="62" fill="#111821"/><text x="103.0" y="537" fill="#8b96a3" font-size="13" font-family="Inter,Arial,sans-serif" letter-spacing="1">GROUND</text></g><g><rect x="697.2" y="500" width="793.8" height="62" fill="#14161d"/><text x="705.2" y="537" fill="#8b96a3" font-size="13" font-family="Inter,Arial,sans-serif" letter-spacing="1">TILT</text></g><g><rect x="1491.0" y="500" width="219.0" height="62" fill="#111821"/><text x="1499.0" y="537" fill="#8b96a3" font-size="13" font-family="Inter,Arial,sans-serif" letter-spacing="1">ESCAPE</text></g>
  <text x="95" y="640" fill="#737e8a" font-size="12" font-family="Inter,Arial,sans-serif">TEMPO · METADATA</text>
  <line x1="95" x2="1710" y1="785" y2="785" stroke="#2c343e"/>
  <polyline points="136.1,728.5 163.4,728.5 272.9,742.6 300.3,735.6 464.5,770.9 491.9,700.3 574.0,700.3 738.3,721.5 820.4,770.9 902.5,714.4 957.2,707.4 984.6,728.5 1148.9,700.3 1176.2,714.4 1313.1,714.4 1422.6,679.1 1450.0,700.3 1477.3,721.5" fill="none" stroke="#7f8b99" stroke-width="2"/><circle cx="136.1" cy="728.5" r="3" fill="#a6afb9"/><circle cx="163.4" cy="728.5" r="3" fill="#a6afb9"/><circle cx="272.9" cy="742.6" r="3" fill="#a6afb9"/><circle cx="300.3" cy="735.6" r="3" fill="#a6afb9"/><circle cx="464.5" cy="770.9" r="3" fill="#a6afb9"/><circle cx="491.9" cy="700.3" r="3" fill="#a6afb9"/><circle cx="574.0" cy="700.3" r="3" fill="#a6afb9"/><circle cx="738.3" cy="721.5" r="3" fill="#a6afb9"/><circle cx="820.4" cy="770.9" r="3" fill="#a6afb9"/><circle cx="902.5" cy="714.4" r="3" fill="#a6afb9"/><circle cx="957.2" cy="707.4" r="3" fill="#a6afb9"/><circle cx="984.6" cy="728.5" r="3" fill="#a6afb9"/><circle cx="1148.9" cy="700.3" r="3" fill="#a6afb9"/><circle cx="1176.2" cy="714.4" r="3" fill="#a6afb9"/><circle cx="1313.1" cy="714.4" r="3" fill="#a6afb9"/><circle cx="1422.6" cy="679.1" r="3" fill="#a6afb9"/><circle cx="1450.0" cy="700.3" r="3" fill="#a6afb9"/><circle cx="1477.3" cy="721.5" r="3" fill="#a6afb9"/>
  <text x="95" y="836" fill="#626d78" font-size="13" font-family="Inter,Arial,sans-serif">Direction fallback may come from existing editorial roles/labels. UNKNOWN dimensions stay unknown; see the detailed site for provenance and five-track context.</text>
</svg>