<?xml version="1.0" encoding="UTF-8"?>
<svg xmlns="http://www.w3.org/2000/svg" width="1800" height="920" viewBox="0 0 1800 920" role="img" aria-labelledby="title desc">
  <title id="title">STRANGE GAIT felt journey map</title>
  <desc id="desc">Evidence-bound direction ribbon across elapsed time, with structure and BPM kept separate. Direction words are editorial or sourced language; no vertical coordinate represents energy.</desc>
  <rect width="1800" height="920" fill="#0b0e12"/>
  <rect x="30" y="30" width="1740" height="850" rx="18" fill="#0d1117" stroke="#252d37"/>
  <text x="95" y="92" fill="#edf1f5" font-size="42" font-family="Inter,Arial,sans-serif" font-weight="650">STRANGE GAIT</text>
  <text x="95" y="126" fill="#8b95a2" font-size="16" font-family="Inter,Arial,sans-serif" letter-spacing="1.4">FELT MAP · DIRECTION FIRST · EVIDENCE BOUND</text>
  <text x="95" y="172" fill="#66717e" font-size="14" font-family="Inter,Arial,sans-serif">No universal energy axis. Track language describes direction/state; BPM remains measured metadata.</text>
  <text x="95" y="219" fill="#9aa4af" font-size="13" font-family="Inter,Arial,sans-serif">DIRECTION ACROSS TIME</text>
  <g><rect x="95.0" y="235" width="64.6" height="205" fill="#101419" stroke="#a493b1" stroke-width="2.5"/><text x="102.0" y="255" fill="#6f7b88" font-size="11" font-family="Inter,Arial,sans-serif">01</text><text x="102.0" y="269" fill="#d7dce2" font-size="12" font-family="Inter,Arial,sans-serif">transfor…</text></g><g><rect x="159.6" y="235" width="64.6" height="205" fill="#12161c" stroke="#3b444f" stroke-width="1"/><text x="166.6" y="255" fill="#6f7b88" font-size="11" font-family="Inter,Arial,sans-serif">02</text><text x="166.6" y="327" fill="#d7dce2" font-size="12" font-family="Inter,Arial,sans-serif">Ground —…</text></g><g><rect x="224.2" y="235" width="64.6" height="205" fill="#101419" stroke="#3b444f" stroke-width="1"/><text x="231.2" y="255" fill="#6f7b88" font-size="11" font-family="Inter,Arial,sans-serif">03</text><text x="231.2" y="385" fill="#d7dce2" font-size="12" font-family="Inter,Arial,sans-serif">Ground —…</text></g><g><rect x="288.8" y="235" width="64.6" height="205" fill="#12161c" stroke="#a493b1" stroke-width="2.5"/><text x="295.8" y="255" fill="#6f7b88" font-size="11" font-family="Inter,Arial,sans-serif">04</text><text x="295.8" y="269" fill="#d7dce2" font-size="12" font-family="Inter,Arial,sans-serif">triplet …</text></g><g><rect x="353.4" y="235" width="64.6" height="205" fill="#101419" stroke="#3b444f" stroke-width="1"/><text x="360.4" y="255" fill="#6f7b88" font-size="11" font-family="Inter,Arial,sans-serif">05</text><text x="360.4" y="327" fill="#d7dce2" font-size="12" font-family="Inter,Arial,sans-serif">Ground —…</text></g><g><rect x="418.0" y="235" width="64.6" height="205" fill="#12161c" stroke="#a493b1" stroke-width="2.5"/><text x="425.0" y="255" fill="#6f7b88" font-size="11" font-family="Inter,Arial,sans-serif">06</text><text x="425.0" y="385" fill="#d7dce2" font-size="12" font-family="Inter,Arial,sans-serif">swung fu…</text></g><g><rect x="482.6" y="235" width="64.6" height="205" fill="#101419" stroke="#a493b1" stroke-width="2.5"/><text x="489.6" y="255" fill="#6f7b88" font-size="11" font-family="Inter,Arial,sans-serif">07</text><text x="489.6" y="269" fill="#d7dce2" font-size="12" font-family="Inter,Arial,sans-serif">rumble t…</text></g><g><rect x="547.2" y="235" width="64.6" height="205" fill="#12161c" stroke="#3b444f" stroke-width="1"/><text x="554.2" y="255" fill="#6f7b88" font-size="11" font-family="Inter,Arial,sans-serif">08</text><text x="554.2" y="327" fill="#d7dce2" font-size="12" font-family="Inter,Arial,sans-serif">physical…</text></g><g><rect x="611.8" y="235" width="64.6" height="205" fill="#101419" stroke="#3b444f" stroke-width="1"/><text x="618.8" y="255" fill="#6f7b88" font-size="11" font-family="Inter,Arial,sans-serif">09</text><text x="618.8" y="385" fill="#d7dce2" font-size="12" font-family="Inter,Arial,sans-serif">intensif…</text></g><g><rect x="676.4" y="235" width="64.6" height="205" fill="#12161c" stroke="#3b444f" stroke-width="1"/><text x="683.4" y="255" fill="#6f7b88" font-size="11" font-family="Inter,Arial,sans-serif">10</text><text x="683.4" y="269" fill="#d7dce2" font-size="12" font-family="Inter,Arial,sans-serif">rhythmic…</text></g><g><rect x="741.0" y="235" width="64.6" height="205" fill="#101419" stroke="#3b444f" stroke-width="1"/><text x="748.0" y="255" fill="#6f7b88" font-size="11" font-family="Inter,Arial,sans-serif">11</text><text x="748.0" y="327" fill="#d7dce2" font-size="12" font-family="Inter,Arial,sans-serif">dubwise …</text></g><g><rect x="805.6" y="235" width="64.6" height="205" fill="#12161c" stroke="#3b444f" stroke-width="1"/><text x="812.6" y="255" fill="#6f7b88" font-size="11" font-family="Inter,Arial,sans-serif">12</text><text x="812.6" y="385" fill="#d7dce2" font-size="12" font-family="Inter,Arial,sans-serif">broken b…</text></g><g><rect x="870.2" y="235" width="64.6" height="205" fill="#101419" stroke="#a493b1" stroke-width="2.5"/><text x="877.2" y="255" fill="#6f7b88" font-size="11" font-family="Inter,Arial,sans-serif">13</text><text x="877.2" y="269" fill="#d7dce2" font-size="12" font-family="Inter,Arial,sans-serif">cross rh…</text></g><g><rect x="934.8" y="235" width="64.6" height="205" fill="#12161c" stroke="#3b444f" stroke-width="1"/><text x="941.8" y="255" fill="#6f7b88" font-size="11" font-family="Inter,Arial,sans-serif">14</text><text x="941.8" y="327" fill="#d7dce2" font-size="12" font-family="Inter,Arial,sans-serif">funk re …</text></g><g><rect x="999.4" y="235" width="64.6" height="205" fill="#101419" stroke="#3b444f" stroke-width="1"/><text x="1006.4" y="255" fill="#6f7b88" font-size="11" font-family="Inter,Arial,sans-serif">15</text><text x="1006.4" y="385" fill="#d7dce2" font-size="12" font-family="Inter,Arial,sans-serif">crooked …</text></g><g><rect x="1064.0" y="235" width="64.6" height="205" fill="#12161c" stroke="#a493b1" stroke-width="2.5"/><text x="1071.0" y="255" fill="#6f7b88" font-size="11" font-family="Inter,Arial,sans-serif">16</text><text x="1071.0" y="269" fill="#d7dce2" font-size="12" font-family="Inter,Arial,sans-serif">uncontai…</text></g><g><rect x="1128.6" y="235" width="64.6" height="205" fill="#101419" stroke="#3b444f" stroke-width="1"/><text x="1135.6" y="255" fill="#6f7b88" font-size="11" font-family="Inter,Arial,sans-serif">17</text><text x="1135.6" y="327" fill="#d7dce2" font-size="12" font-family="Inter,Arial,sans-serif">driving …</text></g><g><rect x="1193.2" y="235" width="64.6" height="205" fill="#12161c" stroke="#3b444f" stroke-width="1"/><text x="1200.2" y="255" fill="#6f7b88" font-size="11" font-family="Inter,Arial,sans-serif">18</text><text x="1200.2" y="385" fill="#d7dce2" font-size="12" font-family="Inter,Arial,sans-serif">unpredic…</text></g><g><rect x="1257.8" y="235" width="64.6" height="205" fill="#101419" stroke="#a493b1" stroke-width="2.5"/><text x="1264.8" y="255" fill="#6f7b88" font-size="11" font-family="Inter,Arial,sans-serif">19</text><text x="1264.8" y="269" fill="#d7dce2" font-size="12" font-family="Inter,Arial,sans-serif">foregrou…</text></g><g><rect x="1322.4" y="235" width="64.6" height="205" fill="#12161c" stroke="#a493b1" stroke-width="2.5"/><text x="1329.4" y="255" fill="#6f7b88" font-size="11" font-family="Inter,Arial,sans-serif">20</text><text x="1329.4" y="327" fill="#d7dce2" font-size="12" font-family="Inter,Arial,sans-serif">machine …</text></g><g><rect x="1387.0" y="235" width="64.6" height="205" fill="#101419" stroke="#3b444f" stroke-width="1"/><text x="1394.0" y="255" fill="#6f7b88" font-size="11" font-family="Inter,Arial,sans-serif">21</text><text x="1394.0" y="385" fill="#d7dce2" font-size="12" font-family="Inter,Arial,sans-serif">groove c…</text></g><g><rect x="1451.6" y="235" width="64.6" height="205" fill="#12202d" stroke="#6fa6d8" stroke-width="1"/><text x="1458.6" y="255" fill="#6f7b88" font-size="11" font-family="Inter,Arial,sans-serif">22</text><text x="1458.6" y="269" fill="#d7dce2" font-size="12" font-family="Inter,Arial,sans-serif">Tilt — p…</text></g><g><rect x="1516.2" y="235" width="64.6" height="205" fill="#12202d" stroke="#6fa6d8" stroke-width="1"/><text x="1523.2" y="255" fill="#6f7b88" font-size="11" font-family="Inter,Arial,sans-serif">23</text><text x="1523.2" y="327" fill="#d7dce2" font-size="12" font-family="Inter,Arial,sans-serif">Tilt — l…</text></g><g><rect x="1580.8" y="235" width="64.6" height="205" fill="#12202d" stroke="#6fa6d8" stroke-width="1"/><text x="1587.8" y="255" fill="#6f7b88" font-size="11" font-family="Inter,Arial,sans-serif">24</text><text x="1587.8" y="385" fill="#d7dce2" font-size="12" font-family="Inter,Arial,sans-serif">Tilt — l…</text></g><g><rect x="1645.4" y="235" width="64.6" height="205" fill="#101419" stroke="#a493b1" stroke-width="2.5"/><text x="1652.4" y="255" fill="#6f7b88" font-size="11" font-family="Inter,Arial,sans-serif">25</text><text x="1652.4" y="269" fill="#d7dce2" font-size="12" font-family="Inter,Arial,sans-serif">low slun…</text></g>
  <path d="M 1483.9 215 L 1483.9 203 L 1548.5 203 L 1548.5 215" fill="none" stroke="#6fa6d8" stroke-width="2"/><path d="M 1548.5 215 L 1548.5 203 L 1613.1 203 L 1613.1 215" fill="none" stroke="#6fa6d8" stroke-width="2"/>
  <text x="95" y="488" fill="#737e8a" font-size="12" font-family="Inter,Arial,sans-serif">STRUCTURE · SECONDARY EDITORIAL LENS</text>
  <g><rect x="95.0" y="500" width="581.4" height="62" fill="#111821"/><text x="103.0" y="537" fill="#8b96a3" font-size="13" font-family="Inter,Arial,sans-serif" letter-spacing="1">GROUND</text></g><g><rect x="676.4" y="500" width="969.0" height="62" fill="#14161d"/><text x="684.4" y="537" fill="#8b96a3" font-size="13" font-family="Inter,Arial,sans-serif" letter-spacing="1">TILT</text></g><g><rect x="1645.4" y="500" width="64.6" height="62" fill="#111821"/><text x="1653.4" y="537" fill="#8b96a3" font-size="13" font-family="Inter,Arial,sans-serif" letter-spacing="1">ESCAPE</text></g>
  <text x="95" y="640" fill="#737e8a" font-size="12" font-family="Inter,Arial,sans-serif">TEMPO · METADATA</text>
  <line x1="95" x2="1710" y1="785" y2="785" stroke="#2c343e"/>
  <polyline points="191.9,728.5 256.5,728.5 385.7,742.6 450.3,735.6 579.5,700.3 644.1,700.3 708.7,721.5 773.3,770.9 837.9,714.4 967.1,707.4 1031.7,728.5 1160.9,700.3 1225.5,714.4 1419.3,714.4 1483.9,679.1 1548.5,700.3 1613.1,721.5" fill="none" stroke="#7f8b99" stroke-width="2"/><circle cx="191.9" cy="728.5" r="3" fill="#a6afb9"/><circle cx="256.5" cy="728.5" r="3" fill="#a6afb9"/><circle cx="385.7" cy="742.6" r="3" fill="#a6afb9"/><circle cx="450.3" cy="735.6" r="3" fill="#a6afb9"/><circle cx="579.5" cy="700.3" r="3" fill="#a6afb9"/><circle cx="644.1" cy="700.3" r="3" fill="#a6afb9"/><circle cx="708.7" cy="721.5" r="3" fill="#a6afb9"/><circle cx="773.3" cy="770.9" r="3" fill="#a6afb9"/><circle cx="837.9" cy="714.4" r="3" fill="#a6afb9"/><circle cx="967.1" cy="707.4" r="3" fill="#a6afb9"/><circle cx="1031.7" cy="728.5" r="3" fill="#a6afb9"/><circle cx="1160.9" cy="700.3" r="3" fill="#a6afb9"/><circle cx="1225.5" cy="714.4" r="3" fill="#a6afb9"/><circle cx="1419.3" cy="714.4" r="3" fill="#a6afb9"/><circle cx="1483.9" cy="679.1" r="3" fill="#a6afb9"/><circle cx="1548.5" cy="700.3" r="3" fill="#a6afb9"/><circle cx="1613.1" cy="721.5" r="3" fill="#a6afb9"/>
  <text x="95" y="836" fill="#626d78" font-size="13" font-family="Inter,Arial,sans-serif">Direction fallback may come from existing editorial roles/labels. UNKNOWN dimensions stay unknown; see the detailed site for provenance and five-track context.</text>
</svg>