<?xml version="1.0" encoding="UTF-8"?>
<svg xmlns="http://www.w3.org/2000/svg" width="1800" height="920" viewBox="0 0 1800 920" role="img" aria-labelledby="title desc">
  <title id="title">STRANGE GAIT felt journey map</title>
  <desc id="desc">Evidence-bound direction ribbon across elapsed time, with structure and BPM kept separate. Direction words are editorial or sourced language; no vertical coordinate represents energy.</desc>
  <rect width="1800" height="920" fill="#0b0e12"/>
  <rect x="30" y="30" width="1740" height="850" rx="18" fill="#0d1117" stroke="#252d37"/>
  <text x="95" y="92" fill="#edf1f5" font-size="42" font-family="Inter,Arial,sans-serif" font-weight="650">STRANGE GAIT</text>
  <text x="95" y="126" fill="#8b95a2" font-size="16" font-family="Inter,Arial,sans-serif" letter-spacing="1.4">FELT MAP · DIRECTION FIRST · EVIDENCE BOUND</text>
  <text x="95" y="172" fill="#66717e" font-size="14" font-family="Inter,Arial,sans-serif">No universal energy axis. Track language describes direction/state; BPM remains measured metadata.</text>
  <text x="95" y="219" fill="#9aa4af" font-size="13" font-family="Inter,Arial,sans-serif">DIRECTION ACROSS TIME</text>
  <g><rect x="95.0" y="235" width="70.2" height="205" fill="#101419" stroke="#a493b1" stroke-width="2.5"/><text x="102.0" y="255" fill="#6f7b88" font-size="11" font-family="Inter,Arial,sans-serif">01</text><text x="102.0" y="269" fill="#d7dce2" font-size="12" font-family="Inter,Arial,sans-serif">transform…</text></g><g><rect x="165.2" y="235" width="70.2" height="205" fill="#12161c" stroke="#3b444f" stroke-width="1"/><text x="172.2" y="255" fill="#6f7b88" font-size="11" font-family="Inter,Arial,sans-serif">02</text><text x="172.2" y="327" fill="#d7dce2" font-size="12" font-family="Inter,Arial,sans-serif">Ground — …</text></g><g><rect x="235.4" y="235" width="70.2" height="205" fill="#101419" stroke="#3b444f" stroke-width="1"/><text x="242.4" y="255" fill="#6f7b88" font-size="11" font-family="Inter,Arial,sans-serif">03</text><text x="242.4" y="385" fill="#d7dce2" font-size="12" font-family="Inter,Arial,sans-serif">Ground — …</text></g><g><rect x="305.7" y="235" width="70.2" height="205" fill="#12161c" stroke="#a493b1" stroke-width="2.5"/><text x="312.7" y="255" fill="#6f7b88" font-size="11" font-family="Inter,Arial,sans-serif">04</text><text x="312.7" y="269" fill="#d7dce2" font-size="12" font-family="Inter,Arial,sans-serif">triplet d…</text></g><g><rect x="375.9" y="235" width="70.2" height="205" fill="#101419" stroke="#3b444f" stroke-width="1"/><text x="382.9" y="255" fill="#6f7b88" font-size="11" font-family="Inter,Arial,sans-serif">05</text><text x="382.9" y="327" fill="#d7dce2" font-size="12" font-family="Inter,Arial,sans-serif">Ground — …</text></g><g><rect x="446.1" y="235" width="70.2" height="205" fill="#12161c" stroke="#a493b1" stroke-width="2.5"/><text x="453.1" y="255" fill="#6f7b88" font-size="11" font-family="Inter,Arial,sans-serif">06</text><text x="453.1" y="385" fill="#d7dce2" font-size="12" font-family="Inter,Arial,sans-serif">swung fun…</text></g><g><rect x="516.3" y="235" width="70.2" height="205" fill="#101419" stroke="#a493b1" stroke-width="2.5"/><text x="523.3" y="255" fill="#6f7b88" font-size="11" font-family="Inter,Arial,sans-serif">07</text><text x="523.3" y="269" fill="#d7dce2" font-size="12" font-family="Inter,Arial,sans-serif">rumble to…</text></g><g><rect x="586.5" y="235" width="70.2" height="205" fill="#12161c" stroke="#3b444f" stroke-width="1"/><text x="593.5" y="255" fill="#6f7b88" font-size="11" font-family="Inter,Arial,sans-serif">08</text><text x="593.5" y="327" fill="#d7dce2" font-size="12" font-family="Inter,Arial,sans-serif">physical …</text></g><g><rect x="656.7" y="235" width="70.2" height="205" fill="#101419" stroke="#3b444f" stroke-width="1"/><text x="663.7" y="255" fill="#6f7b88" font-size="11" font-family="Inter,Arial,sans-serif">09</text><text x="663.7" y="385" fill="#d7dce2" font-size="12" font-family="Inter,Arial,sans-serif">intensifi…</text></g><g><rect x="727.0" y="235" width="70.2" height="205" fill="#12161c" stroke="#3b444f" stroke-width="1"/><text x="734.0" y="255" fill="#6f7b88" font-size="11" font-family="Inter,Arial,sans-serif">10</text><text x="734.0" y="269" fill="#d7dce2" font-size="12" font-family="Inter,Arial,sans-serif">rhythmic …</text></g><g><rect x="797.2" y="235" width="70.2" height="205" fill="#101419" stroke="#3b444f" stroke-width="1"/><text x="804.2" y="255" fill="#6f7b88" font-size="11" font-family="Inter,Arial,sans-serif">11</text><text x="804.2" y="327" fill="#d7dce2" font-size="12" font-family="Inter,Arial,sans-serif">dubwise s…</text></g><g><rect x="867.4" y="235" width="70.2" height="205" fill="#12161c" stroke="#3b444f" stroke-width="1"/><text x="874.4" y="255" fill="#6f7b88" font-size="11" font-family="Inter,Arial,sans-serif">12</text><text x="874.4" y="385" fill="#d7dce2" font-size="12" font-family="Inter,Arial,sans-serif">broken be…</text></g><g><rect x="937.6" y="235" width="70.2" height="205" fill="#101419" stroke="#3b444f" stroke-width="1"/><text x="944.6" y="255" fill="#6f7b88" font-size="11" font-family="Inter,Arial,sans-serif">13</text><text x="944.6" y="269" fill="#d7dce2" font-size="12" font-family="Inter,Arial,sans-serif">funk re g…</text></g><g><rect x="1007.8" y="235" width="70.2" height="205" fill="#12161c" stroke="#3b444f" stroke-width="1"/><text x="1014.8" y="255" fill="#6f7b88" font-size="11" font-family="Inter,Arial,sans-serif">14</text><text x="1014.8" y="327" fill="#d7dce2" font-size="12" font-family="Inter,Arial,sans-serif">crooked a…</text></g><g><rect x="1078.0" y="235" width="70.2" height="205" fill="#101419" stroke="#3b444f" stroke-width="1"/><text x="1085.0" y="255" fill="#6f7b88" font-size="11" font-family="Inter,Arial,sans-serif">15</text><text x="1085.0" y="385" fill="#d7dce2" font-size="12" font-family="Inter,Arial,sans-serif">driving r…</text></g><g><rect x="1148.3" y="235" width="70.2" height="205" fill="#12161c" stroke="#3b444f" stroke-width="1"/><text x="1155.3" y="255" fill="#6f7b88" font-size="11" font-family="Inter,Arial,sans-serif">16</text><text x="1155.3" y="269" fill="#d7dce2" font-size="12" font-family="Inter,Arial,sans-serif">unpredict…</text></g><g><rect x="1218.5" y="235" width="70.2" height="205" fill="#101419" stroke="#a493b1" stroke-width="2.5"/><text x="1225.5" y="255" fill="#6f7b88" font-size="11" font-family="Inter,Arial,sans-serif">17</text><text x="1225.5" y="327" fill="#d7dce2" font-size="12" font-family="Inter,Arial,sans-serif">foregroun…</text></g><g><rect x="1288.7" y="235" width="70.2" height="205" fill="#12161c" stroke="#a493b1" stroke-width="2.5"/><text x="1295.7" y="255" fill="#6f7b88" font-size="11" font-family="Inter,Arial,sans-serif">18</text><text x="1295.7" y="385" fill="#d7dce2" font-size="12" font-family="Inter,Arial,sans-serif">machine t…</text></g><g><rect x="1358.9" y="235" width="70.2" height="205" fill="#101419" stroke="#3b444f" stroke-width="1"/><text x="1365.9" y="255" fill="#6f7b88" font-size="11" font-family="Inter,Arial,sans-serif">19</text><text x="1365.9" y="269" fill="#d7dce2" font-size="12" font-family="Inter,Arial,sans-serif">groove co…</text></g><g><rect x="1429.1" y="235" width="70.2" height="205" fill="#12202d" stroke="#6fa6d8" stroke-width="1"/><text x="1436.1" y="255" fill="#6f7b88" font-size="11" font-family="Inter,Arial,sans-serif">20</text><text x="1436.1" y="327" fill="#d7dce2" font-size="12" font-family="Inter,Arial,sans-serif">Tilt — pr…</text></g><g><rect x="1499.3" y="235" width="70.2" height="205" fill="#12202d" stroke="#6fa6d8" stroke-width="1"/><text x="1506.3" y="255" fill="#6f7b88" font-size="11" font-family="Inter,Arial,sans-serif">21</text><text x="1506.3" y="385" fill="#d7dce2" font-size="12" font-family="Inter,Arial,sans-serif">Tilt — li…</text></g><g><rect x="1569.6" y="235" width="70.2" height="205" fill="#12202d" stroke="#6fa6d8" stroke-width="1"/><text x="1576.6" y="255" fill="#6f7b88" font-size="11" font-family="Inter,Arial,sans-serif">22</text><text x="1576.6" y="269" fill="#d7dce2" font-size="12" font-family="Inter,Arial,sans-serif">Tilt — li…</text></g><g><rect x="1639.8" y="235" width="70.2" height="205" fill="#101419" stroke="#a493b1" stroke-width="2.5"/><text x="1646.8" y="255" fill="#6f7b88" font-size="11" font-family="Inter,Arial,sans-serif">23</text><text x="1646.8" y="327" fill="#d7dce2" font-size="12" font-family="Inter,Arial,sans-serif">low slung…</text></g>
  <path d="M 1464.2 215 L 1464.2 203 L 1534.5 203 L 1534.5 215" fill="none" stroke="#6fa6d8" stroke-width="2"/><path d="M 1534.5 215 L 1534.5 203 L 1604.7 203 L 1604.7 215" fill="none" stroke="#6fa6d8" stroke-width="2"/>
  <text x="95" y="488" fill="#737e8a" font-size="12" font-family="Inter,Arial,sans-serif">STRUCTURE · SECONDARY EDITORIAL LENS</text>
  <g><rect x="95.0" y="500" width="632.0" height="62" fill="#111821"/><text x="103.0" y="537" fill="#8b96a3" font-size="13" font-family="Inter,Arial,sans-serif" letter-spacing="1">GROUND</text></g><g><rect x="727.0" y="500" width="912.8" height="62" fill="#14161d"/><text x="735.0" y="537" fill="#8b96a3" font-size="13" font-family="Inter,Arial,sans-serif" letter-spacing="1">TILT</text></g><g><rect x="1639.8" y="500" width="70.2" height="62" fill="#111821"/><text x="1647.8" y="537" fill="#8b96a3" font-size="13" font-family="Inter,Arial,sans-serif" letter-spacing="1">ESCAPE</text></g>
  <text x="95" y="640" fill="#737e8a" font-size="12" font-family="Inter,Arial,sans-serif">TEMPO · METADATA</text>
  <line x1="95" x2="1710" y1="785" y2="785" stroke="#2c343e"/>
  <polyline points="200.3,728.5 270.5,728.5 411.0,742.6 481.2,735.6 621.6,700.3 691.8,700.3 762.1,721.5 832.3,770.9 902.5,714.4 972.7,707.4 1042.9,728.5 1113.2,700.3 1183.4,714.4 1394.0,714.4 1464.2,679.1 1534.5,700.3 1604.7,721.5" fill="none" stroke="#7f8b99" stroke-width="2"/><circle cx="200.3" cy="728.5" r="3" fill="#a6afb9"/><circle cx="270.5" cy="728.5" r="3" fill="#a6afb9"/><circle cx="411.0" cy="742.6" r="3" fill="#a6afb9"/><circle cx="481.2" cy="735.6" r="3" fill="#a6afb9"/><circle cx="621.6" cy="700.3" r="3" fill="#a6afb9"/><circle cx="691.8" cy="700.3" r="3" fill="#a6afb9"/><circle cx="762.1" cy="721.5" r="3" fill="#a6afb9"/><circle cx="832.3" cy="770.9" r="3" fill="#a6afb9"/><circle cx="902.5" cy="714.4" r="3" fill="#a6afb9"/><circle cx="972.7" cy="707.4" r="3" fill="#a6afb9"/><circle cx="1042.9" cy="728.5" r="3" fill="#a6afb9"/><circle cx="1113.2" cy="700.3" r="3" fill="#a6afb9"/><circle cx="1183.4" cy="714.4" r="3" fill="#a6afb9"/><circle cx="1394.0" cy="714.4" r="3" fill="#a6afb9"/><circle cx="1464.2" cy="679.1" r="3" fill="#a6afb9"/><circle cx="1534.5" cy="700.3" r="3" fill="#a6afb9"/><circle cx="1604.7" cy="721.5" r="3" fill="#a6afb9"/>
  <text x="95" y="836" fill="#626d78" font-size="13" font-family="Inter,Arial,sans-serif">Direction fallback may come from existing editorial roles/labels. UNKNOWN dimensions stay unknown; see the detailed site for provenance and five-track context.</text>
</svg>