<?xml version="1.0" encoding="UTF-8"?>
<svg xmlns="http://www.w3.org/2000/svg" width="1800" height="920" viewBox="0 0 1800 920" role="img" aria-labelledby="title desc">
  <title id="title">STRANGE GAIT felt journey map</title>
  <desc id="desc">Evidence-bound direction ribbon across elapsed time, with structure and BPM kept separate. Direction words are editorial or sourced language; no vertical coordinate represents energy.</desc>
  <rect width="1800" height="920" fill="#0b0e12"/>
  <rect x="30" y="30" width="1740" height="850" rx="18" fill="#0d1117" stroke="#252d37"/>
  <text x="95" y="92" fill="#edf1f5" font-size="42" font-family="Inter,Arial,sans-serif" font-weight="650">STRANGE GAIT</text>
  <text x="95" y="126" fill="#8b95a2" font-size="16" font-family="Inter,Arial,sans-serif" letter-spacing="1.4">FELT MAP · DIRECTION FIRST · EVIDENCE BOUND</text>
  <text x="95" y="172" fill="#66717e" font-size="14" font-family="Inter,Arial,sans-serif">No universal energy axis. Track language describes direction/state; BPM remains measured metadata.</text>
  <text x="95" y="219" fill="#9aa4af" font-size="13" font-family="Inter,Arial,sans-serif">DIRECTION ACROSS TIME</text>
  <g><rect x="95.0" y="235" width="48.9" height="205" fill="#101419" stroke="#3b444f" stroke-width="1"/><text x="102.0" y="255" fill="#6f7b88" font-size="11" font-family="Inter,Arial,sans-serif">01</text><text x="102.0" y="269" fill="#d7dce2" font-size="12" font-family="Inter,Arial,sans-serif">transf…</text></g><g><rect x="143.9" y="235" width="48.9" height="205" fill="#12161c" stroke="#3b444f" stroke-width="1"/><text x="150.9" y="255" fill="#6f7b88" font-size="11" font-family="Inter,Arial,sans-serif">02</text><text x="150.9" y="327" fill="#d7dce2" font-size="12" font-family="Inter,Arial,sans-serif">Ground…</text></g><g><rect x="192.9" y="235" width="48.9" height="205" fill="#101419" stroke="#3b444f" stroke-width="1"/><text x="199.9" y="255" fill="#6f7b88" font-size="11" font-family="Inter,Arial,sans-serif">03</text><text x="199.9" y="385" fill="#d7dce2" font-size="12" font-family="Inter,Arial,sans-serif">Ground…</text></g><g><rect x="241.8" y="235" width="48.9" height="205" fill="#12161c" stroke="#3b444f" stroke-width="1"/><text x="248.8" y="255" fill="#6f7b88" font-size="11" font-family="Inter,Arial,sans-serif">04</text><text x="248.8" y="269" fill="#d7dce2" font-size="12" font-family="Inter,Arial,sans-serif">triple…</text></g><g><rect x="290.8" y="235" width="48.9" height="205" fill="#101419" stroke="#3b444f" stroke-width="1"/><text x="297.8" y="255" fill="#6f7b88" font-size="11" font-family="Inter,Arial,sans-serif">05</text><text x="297.8" y="327" fill="#d7dce2" font-size="12" font-family="Inter,Arial,sans-serif">Ground…</text></g><g><rect x="339.7" y="235" width="48.9" height="205" fill="#12161c" stroke="#3b444f" stroke-width="1"/><text x="346.7" y="255" fill="#6f7b88" font-size="11" font-family="Inter,Arial,sans-serif">06</text><text x="346.7" y="385" fill="#d7dce2" font-size="12" font-family="Inter,Arial,sans-serif">swung …</text></g><g><rect x="388.6" y="235" width="48.9" height="205" fill="#101419" stroke="#a493b1" stroke-width="2.5"/><text x="395.6" y="255" fill="#6f7b88" font-size="11" font-family="Inter,Arial,sans-serif">07</text><text x="395.6" y="269" fill="#d7dce2" font-size="12" font-family="Inter,Arial,sans-serif">unstab…</text></g><g><rect x="437.6" y="235" width="48.9" height="205" fill="#12161c" stroke="#3b444f" stroke-width="1"/><text x="444.6" y="255" fill="#6f7b88" font-size="11" font-family="Inter,Arial,sans-serif">08</text><text x="444.6" y="327" fill="#d7dce2" font-size="12" font-family="Inter,Arial,sans-serif">rumble…</text></g><g><rect x="486.5" y="235" width="48.9" height="205" fill="#101419" stroke="#a493b1" stroke-width="2.5"/><text x="493.5" y="255" fill="#6f7b88" font-size="11" font-family="Inter,Arial,sans-serif">09</text><text x="493.5" y="385" fill="#d7dce2" font-size="12" font-family="Inter,Arial,sans-serif">oppose…</text></g><g><rect x="535.5" y="235" width="48.9" height="205" fill="#12161c" stroke="#3b444f" stroke-width="1"/><text x="542.5" y="255" fill="#6f7b88" font-size="11" font-family="Inter,Arial,sans-serif">10</text><text x="542.5" y="269" fill="#d7dce2" font-size="12" font-family="Inter,Arial,sans-serif">physic…</text></g><g><rect x="584.4" y="235" width="48.9" height="205" fill="#101419" stroke="#3b444f" stroke-width="1"/><text x="591.4" y="255" fill="#6f7b88" font-size="11" font-family="Inter,Arial,sans-serif">11</text><text x="591.4" y="327" fill="#d7dce2" font-size="12" font-family="Inter,Arial,sans-serif">intens…</text></g><g><rect x="633.3" y="235" width="48.9" height="205" fill="#12161c" stroke="#a493b1" stroke-width="2.5"/><text x="640.3" y="255" fill="#6f7b88" font-size="11" font-family="Inter,Arial,sans-serif">12</text><text x="640.3" y="385" fill="#d7dce2" font-size="12" font-family="Inter,Arial,sans-serif">sustai…</text></g><g><rect x="682.3" y="235" width="48.9" height="205" fill="#101419" stroke="#a493b1" stroke-width="2.5"/><text x="689.3" y="255" fill="#6f7b88" font-size="11" font-family="Inter,Arial,sans-serif">13</text><text x="689.3" y="269" fill="#d7dce2" font-size="12" font-family="Inter,Arial,sans-serif">fake o…</text></g><g><rect x="731.2" y="235" width="48.9" height="205" fill="#12161c" stroke="#3b444f" stroke-width="1"/><text x="738.2" y="255" fill="#6f7b88" font-size="11" font-family="Inter,Arial,sans-serif">14</text><text x="738.2" y="327" fill="#d7dce2" font-size="12" font-family="Inter,Arial,sans-serif">rhythm…</text></g><g><rect x="780.2" y="235" width="48.9" height="205" fill="#101419" stroke="#a493b1" stroke-width="2.5"/><text x="787.2" y="255" fill="#6f7b88" font-size="11" font-family="Inter,Arial,sans-serif">15</text><text x="787.2" y="385" fill="#d7dce2" font-size="12" font-family="Inter,Arial,sans-serif">passin…</text></g><g><rect x="829.1" y="235" width="48.9" height="205" fill="#12161c" stroke="#3b444f" stroke-width="1"/><text x="836.1" y="255" fill="#6f7b88" font-size="11" font-family="Inter,Arial,sans-serif">16</text><text x="836.1" y="269" fill="#d7dce2" font-size="12" font-family="Inter,Arial,sans-serif">dubwis…</text></g><g><rect x="878.0" y="235" width="48.9" height="205" fill="#101419" stroke="#3b444f" stroke-width="1"/><text x="885.0" y="255" fill="#6f7b88" font-size="11" font-family="Inter,Arial,sans-serif">17</text><text x="885.0" y="327" fill="#d7dce2" font-size="12" font-family="Inter,Arial,sans-serif">broken…</text></g><g><rect x="927.0" y="235" width="48.9" height="205" fill="#12161c" stroke="#3b444f" stroke-width="1"/><text x="934.0" y="255" fill="#6f7b88" font-size="11" font-family="Inter,Arial,sans-serif">18</text><text x="934.0" y="385" fill="#d7dce2" font-size="12" font-family="Inter,Arial,sans-serif">cross …</text></g><g><rect x="975.9" y="235" width="48.9" height="205" fill="#101419" stroke="#3b444f" stroke-width="1"/><text x="982.9" y="255" fill="#6f7b88" font-size="11" font-family="Inter,Arial,sans-serif">19</text><text x="982.9" y="269" fill="#d7dce2" font-size="12" font-family="Inter,Arial,sans-serif">funk r…</text></g><g><rect x="1024.8" y="235" width="48.9" height="205" fill="#12161c" stroke="#3b444f" stroke-width="1"/><text x="1031.8" y="255" fill="#6f7b88" font-size="11" font-family="Inter,Arial,sans-serif">20</text><text x="1031.8" y="327" fill="#d7dce2" font-size="12" font-family="Inter,Arial,sans-serif">crooke…</text></g><g><rect x="1073.8" y="235" width="48.9" height="205" fill="#101419" stroke="#3b444f" stroke-width="1"/><text x="1080.8" y="255" fill="#6f7b88" font-size="11" font-family="Inter,Arial,sans-serif">21</text><text x="1080.8" y="385" fill="#d7dce2" font-size="12" font-family="Inter,Arial,sans-serif">uncont…</text></g><g><rect x="1122.7" y="235" width="48.9" height="205" fill="#12161c" stroke="#a493b1" stroke-width="2.5"/><text x="1129.7" y="255" fill="#6f7b88" font-size="11" font-family="Inter,Arial,sans-serif">22</text><text x="1129.7" y="269" fill="#d7dce2" font-size="12" font-family="Inter,Arial,sans-serif">rhythm…</text></g><g><rect x="1171.7" y="235" width="48.9" height="205" fill="#101419" stroke="#3b444f" stroke-width="1"/><text x="1178.7" y="255" fill="#6f7b88" font-size="11" font-family="Inter,Arial,sans-serif">23</text><text x="1178.7" y="327" fill="#d7dce2" font-size="12" font-family="Inter,Arial,sans-serif">drivin…</text></g><g><rect x="1220.6" y="235" width="48.9" height="205" fill="#12161c" stroke="#3b444f" stroke-width="1"/><text x="1227.6" y="255" fill="#6f7b88" font-size="11" font-family="Inter,Arial,sans-serif">24</text><text x="1227.6" y="385" fill="#d7dce2" font-size="12" font-family="Inter,Arial,sans-serif">unpred…</text></g><g><rect x="1269.5" y="235" width="48.9" height="205" fill="#101419" stroke="#3b444f" stroke-width="1"/><text x="1276.5" y="255" fill="#6f7b88" font-size="11" font-family="Inter,Arial,sans-serif">25</text><text x="1276.5" y="269" fill="#d7dce2" font-size="12" font-family="Inter,Arial,sans-serif">foregr…</text></g><g><rect x="1318.5" y="235" width="48.9" height="205" fill="#12161c" stroke="#3b444f" stroke-width="1"/><text x="1325.5" y="255" fill="#6f7b88" font-size="11" font-family="Inter,Arial,sans-serif">26</text><text x="1325.5" y="327" fill="#d7dce2" font-size="12" font-family="Inter,Arial,sans-serif">machin…</text></g><g><rect x="1367.4" y="235" width="48.9" height="205" fill="#101419" stroke="#3b444f" stroke-width="1"/><text x="1374.4" y="255" fill="#6f7b88" font-size="11" font-family="Inter,Arial,sans-serif">27</text><text x="1374.4" y="385" fill="#d7dce2" font-size="12" font-family="Inter,Arial,sans-serif">groove…</text></g><g><rect x="1416.4" y="235" width="48.9" height="205" fill="#12161c" stroke="#a493b1" stroke-width="2.5"/><text x="1423.4" y="255" fill="#6f7b88" font-size="11" font-family="Inter,Arial,sans-serif">28</text><text x="1423.4" y="269" fill="#d7dce2" font-size="12" font-family="Inter,Arial,sans-serif">four o…</text></g><g><rect x="1465.3" y="235" width="48.9" height="205" fill="#12202d" stroke="#6fa6d8" stroke-width="1"/><text x="1472.3" y="255" fill="#6f7b88" font-size="11" font-family="Inter,Arial,sans-serif">29</text><text x="1472.3" y="327" fill="#d7dce2" font-size="12" font-family="Inter,Arial,sans-serif">Tilt —…</text></g><g><rect x="1514.2" y="235" width="48.9" height="205" fill="#12202d" stroke="#6fa6d8" stroke-width="1"/><text x="1521.2" y="255" fill="#6f7b88" font-size="11" font-family="Inter,Arial,sans-serif">30</text><text x="1521.2" y="385" fill="#d7dce2" font-size="12" font-family="Inter,Arial,sans-serif">Tilt —…</text></g><g><rect x="1563.2" y="235" width="48.9" height="205" fill="#12202d" stroke="#6fa6d8" stroke-width="1"/><text x="1570.2" y="255" fill="#6f7b88" font-size="11" font-family="Inter,Arial,sans-serif">31</text><text x="1570.2" y="269" fill="#d7dce2" font-size="12" font-family="Inter,Arial,sans-serif">Tilt —…</text></g><g><rect x="1612.1" y="235" width="48.9" height="205" fill="#12161c" stroke="#a493b1" stroke-width="2.5"/><text x="1619.1" y="255" fill="#6f7b88" font-size="11" font-family="Inter,Arial,sans-serif">32</text><text x="1619.1" y="327" fill="#d7dce2" font-size="12" font-family="Inter,Arial,sans-serif">limina…</text></g><g><rect x="1661.1" y="235" width="48.9" height="205" fill="#101419" stroke="#3b444f" stroke-width="1"/><text x="1668.1" y="255" fill="#6f7b88" font-size="11" font-family="Inter,Arial,sans-serif">33</text><text x="1668.1" y="385" fill="#d7dce2" font-size="12" font-family="Inter,Arial,sans-serif">low sl…</text></g>
  <path d="M 1489.8 215 L 1489.8 203 L 1538.7 203 L 1538.7 215" fill="none" stroke="#6fa6d8" stroke-width="2"/><path d="M 1538.7 215 L 1538.7 203 L 1587.7 203 L 1587.7 215" fill="none" stroke="#6fa6d8" stroke-width="2"/>
  <text x="95" y="488" fill="#737e8a" font-size="12" font-family="Inter,Arial,sans-serif">STRUCTURE · SECONDARY EDITORIAL LENS</text>
  <g><rect x="95.0" y="500" width="587.3" height="62" fill="#111821"/><text x="103.0" y="537" fill="#8b96a3" font-size="13" font-family="Inter,Arial,sans-serif" letter-spacing="1">GROUND</text></g><g><rect x="682.3" y="500" width="929.8" height="62" fill="#14161d"/><text x="690.3" y="537" fill="#8b96a3" font-size="13" font-family="Inter,Arial,sans-serif" letter-spacing="1">TILT</text></g><g><rect x="1612.1" y="500" width="97.9" height="62" fill="#111821"/><text x="1620.1" y="537" fill="#8b96a3" font-size="13" font-family="Inter,Arial,sans-serif" letter-spacing="1">ESCAPE</text></g>
  <text x="95" y="640" fill="#737e8a" font-size="12" font-family="Inter,Arial,sans-serif">TEMPO · METADATA</text>
  <line x1="95" x2="1710" y1="785" y2="785" stroke="#2c343e"/>
  <polyline points="168.4,728.5 217.3,728.5 315.2,742.6 364.2,735.6 559.9,700.3 608.9,700.3 755.7,721.5 853.6,770.9 902.5,714.4 1000.4,707.4 1049.3,728.5 1196.1,700.3 1245.1,714.4 1391.9,714.4 1489.8,679.1 1538.7,700.3 1587.7,721.5" fill="none" stroke="#7f8b99" stroke-width="2"/><circle cx="168.4" cy="728.5" r="3" fill="#a6afb9"/><circle cx="217.3" cy="728.5" r="3" fill="#a6afb9"/><circle cx="315.2" cy="742.6" r="3" fill="#a6afb9"/><circle cx="364.2" cy="735.6" r="3" fill="#a6afb9"/><circle cx="559.9" cy="700.3" r="3" fill="#a6afb9"/><circle cx="608.9" cy="700.3" r="3" fill="#a6afb9"/><circle cx="755.7" cy="721.5" r="3" fill="#a6afb9"/><circle cx="853.6" cy="770.9" r="3" fill="#a6afb9"/><circle cx="902.5" cy="714.4" r="3" fill="#a6afb9"/><circle cx="1000.4" cy="707.4" r="3" fill="#a6afb9"/><circle cx="1049.3" cy="728.5" r="3" fill="#a6afb9"/><circle cx="1196.1" cy="700.3" r="3" fill="#a6afb9"/><circle cx="1245.1" cy="714.4" r="3" fill="#a6afb9"/><circle cx="1391.9" cy="714.4" r="3" fill="#a6afb9"/><circle cx="1489.8" cy="679.1" r="3" fill="#a6afb9"/><circle cx="1538.7" cy="700.3" r="3" fill="#a6afb9"/><circle cx="1587.7" cy="721.5" r="3" fill="#a6afb9"/>
  <text x="95" y="836" fill="#626d78" font-size="13" font-family="Inter,Arial,sans-serif">Direction fallback may come from existing editorial roles/labels. UNKNOWN dimensions stay unknown; see the detailed site for provenance and five-track context.</text>
</svg>