<?xml version="1.0" encoding="UTF-8"?>
<svg xmlns="http://www.w3.org/2000/svg" width="1800" height="920" viewBox="0 0 1800 920" role="img" aria-labelledby="title desc">
  <title id="title">STRANGE GAIT felt journey map</title>
  <desc id="desc">Evidence-bound direction ribbon across elapsed time, with structure and BPM kept separate. Direction words are editorial or sourced language; no vertical coordinate represents energy.</desc>
  <rect width="1800" height="920" fill="#0b0e12"/>
  <rect x="30" y="30" width="1740" height="850" rx="18" fill="#0d1117" stroke="#252d37"/>
  <text x="95" y="92" fill="#edf1f5" font-size="42" font-family="Inter,Arial,sans-serif" font-weight="650">STRANGE GAIT</text>
  <text x="95" y="126" fill="#8b95a2" font-size="16" font-family="Inter,Arial,sans-serif" letter-spacing="1.4">FELT MAP · DIRECTION FIRST · EVIDENCE BOUND</text>
  <text x="95" y="172" fill="#66717e" font-size="14" font-family="Inter,Arial,sans-serif">No universal energy axis. Track language describes direction/state; BPM remains measured metadata.</text>
  <text x="95" y="219" fill="#9aa4af" font-size="13" font-family="Inter,Arial,sans-serif">DIRECTION ACROSS TIME</text>
  <g><rect x="95.0" y="235" width="47.5" height="205" fill="#101419" stroke="#3b444f" stroke-width="1"/><text x="102.0" y="255" fill="#6f7b88" font-size="11" font-family="Inter,Arial,sans-serif">01</text></g><g><rect x="142.5" y="235" width="47.5" height="205" fill="#12161c" stroke="#3b444f" stroke-width="1"/><text x="149.5" y="255" fill="#6f7b88" font-size="11" font-family="Inter,Arial,sans-serif">02</text></g><g><rect x="190.0" y="235" width="47.5" height="205" fill="#101419" stroke="#3b444f" stroke-width="1"/><text x="197.0" y="255" fill="#6f7b88" font-size="11" font-family="Inter,Arial,sans-serif">03</text></g><g><rect x="237.5" y="235" width="47.5" height="205" fill="#12161c" stroke="#3b444f" stroke-width="1"/><text x="244.5" y="255" fill="#6f7b88" font-size="11" font-family="Inter,Arial,sans-serif">04</text></g><g><rect x="285.0" y="235" width="47.5" height="205" fill="#101419" stroke="#3b444f" stroke-width="1"/><text x="292.0" y="255" fill="#6f7b88" font-size="11" font-family="Inter,Arial,sans-serif">05</text></g><g><rect x="332.5" y="235" width="47.5" height="205" fill="#12161c" stroke="#3b444f" stroke-width="1"/><text x="339.5" y="255" fill="#6f7b88" font-size="11" font-family="Inter,Arial,sans-serif">06</text></g><g><rect x="380.0" y="235" width="47.5" height="205" fill="#101419" stroke="#a493b1" stroke-width="2.5"/><text x="387.0" y="255" fill="#6f7b88" font-size="11" font-family="Inter,Arial,sans-serif">07</text></g><g><rect x="427.5" y="235" width="47.5" height="205" fill="#12161c" stroke="#3b444f" stroke-width="1"/><text x="434.5" y="255" fill="#6f7b88" font-size="11" font-family="Inter,Arial,sans-serif">08</text></g><g><rect x="475.0" y="235" width="47.5" height="205" fill="#101419" stroke="#a493b1" stroke-width="2.5"/><text x="482.0" y="255" fill="#6f7b88" font-size="11" font-family="Inter,Arial,sans-serif">09</text></g><g><rect x="522.5" y="235" width="47.5" height="205" fill="#12161c" stroke="#3b444f" stroke-width="1"/><text x="529.5" y="255" fill="#6f7b88" font-size="11" font-family="Inter,Arial,sans-serif">10</text></g><g><rect x="570.0" y="235" width="47.5" height="205" fill="#101419" stroke="#3b444f" stroke-width="1"/><text x="577.0" y="255" fill="#6f7b88" font-size="11" font-family="Inter,Arial,sans-serif">11</text></g><g><rect x="617.5" y="235" width="47.5" height="205" fill="#12161c" stroke="#a493b1" stroke-width="2.5"/><text x="624.5" y="255" fill="#6f7b88" font-size="11" font-family="Inter,Arial,sans-serif">12</text></g><g><rect x="665.0" y="235" width="47.5" height="205" fill="#101419" stroke="#a493b1" stroke-width="2.5"/><text x="672.0" y="255" fill="#6f7b88" font-size="11" font-family="Inter,Arial,sans-serif">13</text></g><g><rect x="712.5" y="235" width="47.5" height="205" fill="#12161c" stroke="#3b444f" stroke-width="1"/><text x="719.5" y="255" fill="#6f7b88" font-size="11" font-family="Inter,Arial,sans-serif">14</text></g><g><rect x="760.0" y="235" width="47.5" height="205" fill="#101419" stroke="#a493b1" stroke-width="2.5"/><text x="767.0" y="255" fill="#6f7b88" font-size="11" font-family="Inter,Arial,sans-serif">15</text></g><g><rect x="807.5" y="235" width="47.5" height="205" fill="#12161c" stroke="#a493b1" stroke-width="2.5"/><text x="814.5" y="255" fill="#6f7b88" font-size="11" font-family="Inter,Arial,sans-serif">16</text></g><g><rect x="855.0" y="235" width="47.5" height="205" fill="#101419" stroke="#3b444f" stroke-width="1"/><text x="862.0" y="255" fill="#6f7b88" font-size="11" font-family="Inter,Arial,sans-serif">17</text></g><g><rect x="902.5" y="235" width="47.5" height="205" fill="#12161c" stroke="#3b444f" stroke-width="1"/><text x="909.5" y="255" fill="#6f7b88" font-size="11" font-family="Inter,Arial,sans-serif">18</text></g><g><rect x="950.0" y="235" width="47.5" height="205" fill="#101419" stroke="#3b444f" stroke-width="1"/><text x="957.0" y="255" fill="#6f7b88" font-size="11" font-family="Inter,Arial,sans-serif">19</text></g><g><rect x="997.5" y="235" width="47.5" height="205" fill="#12161c" stroke="#3b444f" stroke-width="1"/><text x="1004.5" y="255" fill="#6f7b88" font-size="11" font-family="Inter,Arial,sans-serif">20</text></g><g><rect x="1045.0" y="235" width="47.5" height="205" fill="#101419" stroke="#3b444f" stroke-width="1"/><text x="1052.0" y="255" fill="#6f7b88" font-size="11" font-family="Inter,Arial,sans-serif">21</text></g><g><rect x="1092.5" y="235" width="47.5" height="205" fill="#12161c" stroke="#3b444f" stroke-width="1"/><text x="1099.5" y="255" fill="#6f7b88" font-size="11" font-family="Inter,Arial,sans-serif">22</text></g><g><rect x="1140.0" y="235" width="47.5" height="205" fill="#101419" stroke="#a493b1" stroke-width="2.5"/><text x="1147.0" y="255" fill="#6f7b88" font-size="11" font-family="Inter,Arial,sans-serif">23</text></g><g><rect x="1187.5" y="235" width="47.5" height="205" fill="#12161c" stroke="#3b444f" stroke-width="1"/><text x="1194.5" y="255" fill="#6f7b88" font-size="11" font-family="Inter,Arial,sans-serif">24</text></g><g><rect x="1235.0" y="235" width="47.5" height="205" fill="#101419" stroke="#3b444f" stroke-width="1"/><text x="1242.0" y="255" fill="#6f7b88" font-size="11" font-family="Inter,Arial,sans-serif">25</text></g><g><rect x="1282.5" y="235" width="47.5" height="205" fill="#12161c" stroke="#3b444f" stroke-width="1"/><text x="1289.5" y="255" fill="#6f7b88" font-size="11" font-family="Inter,Arial,sans-serif">26</text></g><g><rect x="1330.0" y="235" width="47.5" height="205" fill="#101419" stroke="#3b444f" stroke-width="1"/><text x="1337.0" y="255" fill="#6f7b88" font-size="11" font-family="Inter,Arial,sans-serif">27</text></g><g><rect x="1377.5" y="235" width="47.5" height="205" fill="#12161c" stroke="#3b444f" stroke-width="1"/><text x="1384.5" y="255" fill="#6f7b88" font-size="11" font-family="Inter,Arial,sans-serif">28</text></g><g><rect x="1425.0" y="235" width="47.5" height="205" fill="#101419" stroke="#a493b1" stroke-width="2.5"/><text x="1432.0" y="255" fill="#6f7b88" font-size="11" font-family="Inter,Arial,sans-serif">29</text></g><g><rect x="1472.5" y="235" width="47.5" height="205" fill="#12202d" stroke="#6fa6d8" stroke-width="1"/><text x="1479.5" y="255" fill="#6f7b88" font-size="11" font-family="Inter,Arial,sans-serif">30</text></g><g><rect x="1520.0" y="235" width="47.5" height="205" fill="#12202d" stroke="#6fa6d8" stroke-width="1"/><text x="1527.0" y="255" fill="#6f7b88" font-size="11" font-family="Inter,Arial,sans-serif">31</text></g><g><rect x="1567.5" y="235" width="47.5" height="205" fill="#12202d" stroke="#6fa6d8" stroke-width="1"/><text x="1574.5" y="255" fill="#6f7b88" font-size="11" font-family="Inter,Arial,sans-serif">32</text></g><g><rect x="1615.0" y="235" width="47.5" height="205" fill="#101419" stroke="#a493b1" stroke-width="2.5"/><text x="1622.0" y="255" fill="#6f7b88" font-size="11" font-family="Inter,Arial,sans-serif">33</text></g><g><rect x="1662.5" y="235" width="47.5" height="205" fill="#12161c" stroke="#3b444f" stroke-width="1"/><text x="1669.5" y="255" fill="#6f7b88" font-size="11" font-family="Inter,Arial,sans-serif">34</text></g>
  <path d="M 1496.3 215 L 1496.3 203 L 1543.8 203 L 1543.8 215" fill="none" stroke="#6fa6d8" stroke-width="2"/><path d="M 1543.8 215 L 1543.8 203 L 1591.3 203 L 1591.3 215" fill="none" stroke="#6fa6d8" stroke-width="2"/>
  <text x="95" y="488" fill="#737e8a" font-size="12" font-family="Inter,Arial,sans-serif">STRUCTURE · SECONDARY EDITORIAL LENS</text>
  <g><rect x="95.0" y="500" width="570.0" height="62" fill="#111821"/><text x="103.0" y="537" fill="#8b96a3" font-size="13" font-family="Inter,Arial,sans-serif" letter-spacing="1">GROUND</text></g><g><rect x="665.0" y="500" width="950.0" height="62" fill="#14161d"/><text x="673.0" y="537" fill="#8b96a3" font-size="13" font-family="Inter,Arial,sans-serif" letter-spacing="1">TILT</text></g><g><rect x="1615.0" y="500" width="95.0" height="62" fill="#111821"/><text x="1623.0" y="537" fill="#8b96a3" font-size="13" font-family="Inter,Arial,sans-serif" letter-spacing="1">ESCAPE</text></g>
  <text x="95" y="640" fill="#737e8a" font-size="12" font-family="Inter,Arial,sans-serif">TEMPO · METADATA</text>
  <line x1="95" x2="1710" y1="785" y2="785" stroke="#2c343e"/>
  <polyline points="166.3,728.5 213.8,728.5 308.8,742.6 356.3,735.6 546.3,700.3 593.8,700.3 736.3,721.5 878.8,770.9 926.2,714.4 1021.2,707.4 1068.8,728.5 1211.3,700.3 1258.8,714.4 1401.3,714.4 1496.3,679.1 1543.8,700.3 1591.3,721.5" fill="none" stroke="#7f8b99" stroke-width="2"/><circle cx="166.3" cy="728.5" r="3" fill="#a6afb9"/><circle cx="213.8" cy="728.5" r="3" fill="#a6afb9"/><circle cx="308.8" cy="742.6" r="3" fill="#a6afb9"/><circle cx="356.3" cy="735.6" r="3" fill="#a6afb9"/><circle cx="546.3" cy="700.3" r="3" fill="#a6afb9"/><circle cx="593.8" cy="700.3" r="3" fill="#a6afb9"/><circle cx="736.3" cy="721.5" r="3" fill="#a6afb9"/><circle cx="878.8" cy="770.9" r="3" fill="#a6afb9"/><circle cx="926.2" cy="714.4" r="3" fill="#a6afb9"/><circle cx="1021.2" cy="707.4" r="3" fill="#a6afb9"/><circle cx="1068.8" cy="728.5" r="3" fill="#a6afb9"/><circle cx="1211.3" cy="700.3" r="3" fill="#a6afb9"/><circle cx="1258.8" cy="714.4" r="3" fill="#a6afb9"/><circle cx="1401.3" cy="714.4" r="3" fill="#a6afb9"/><circle cx="1496.3" cy="679.1" r="3" fill="#a6afb9"/><circle cx="1543.8" cy="700.3" r="3" fill="#a6afb9"/><circle cx="1591.3" cy="721.5" r="3" fill="#a6afb9"/>
  <text x="95" y="836" fill="#626d78" font-size="13" font-family="Inter,Arial,sans-serif">Direction fallback may come from existing editorial roles/labels. UNKNOWN dimensions stay unknown; see the detailed site for provenance and five-track context.</text>
</svg>