<?xml version="1.0" encoding="UTF-8"?>
<svg xmlns="http://www.w3.org/2000/svg" width="1800" height="920" viewBox="0 0 1800 920" role="img" aria-labelledby="title desc">
  <title id="title">STRANGE GAIT felt journey map</title>
  <desc id="desc">Evidence-bound direction ribbon across elapsed time, with structure and BPM kept separate. Direction words are editorial or sourced language; no vertical coordinate represents energy.</desc>
  <rect width="1800" height="920" fill="#0b0e12"/>
  <rect x="30" y="30" width="1740" height="850" rx="18" fill="#0d1117" stroke="#252d37"/>
  <text x="95" y="92" fill="#edf1f5" font-size="42" font-family="Inter,Arial,sans-serif" font-weight="650">STRANGE GAIT</text>
  <text x="95" y="126" fill="#8b95a2" font-size="16" font-family="Inter,Arial,sans-serif" letter-spacing="1.4">FELT MAP · DIRECTION FIRST · EVIDENCE BOUND</text>
  <text x="95" y="172" fill="#66717e" font-size="14" font-family="Inter,Arial,sans-serif">No universal energy axis. Track language describes direction/state; BPM remains measured metadata.</text>
  <text x="95" y="219" fill="#9aa4af" font-size="13" font-family="Inter,Arial,sans-serif">DIRECTION ACROSS TIME</text>
  <g><rect x="95.0" y="235" width="25.6" height="205" fill="#101419" stroke="#3b444f" stroke-width="1"/><text x="102.0" y="255" fill="#6f7b88" font-size="11" font-family="Inter,Arial,sans-serif">01</text></g><g><rect x="120.6" y="235" width="25.6" height="205" fill="#12161c" stroke="#3b444f" stroke-width="1"/><text x="127.6" y="255" fill="#6f7b88" font-size="11" font-family="Inter,Arial,sans-serif">02</text></g><g><rect x="146.3" y="235" width="25.6" height="205" fill="#101419" stroke="#3b444f" stroke-width="1"/><text x="153.3" y="255" fill="#6f7b88" font-size="11" font-family="Inter,Arial,sans-serif">03</text></g><g><rect x="171.9" y="235" width="25.6" height="205" fill="#12161c" stroke="#3b444f" stroke-width="1"/><text x="178.9" y="255" fill="#6f7b88" font-size="11" font-family="Inter,Arial,sans-serif">04</text></g><g><rect x="197.5" y="235" width="25.6" height="205" fill="#101419" stroke="#3b444f" stroke-width="1"/><text x="204.5" y="255" fill="#6f7b88" font-size="11" font-family="Inter,Arial,sans-serif">05</text></g><g><rect x="223.2" y="235" width="25.6" height="205" fill="#12161c" stroke="#3b444f" stroke-width="1"/><text x="230.2" y="255" fill="#6f7b88" font-size="11" font-family="Inter,Arial,sans-serif">06</text></g><g><rect x="248.8" y="235" width="25.6" height="205" fill="#101419" stroke="#3b444f" stroke-width="1"/><text x="255.8" y="255" fill="#6f7b88" font-size="11" font-family="Inter,Arial,sans-serif">07</text></g><g><rect x="274.4" y="235" width="25.6" height="205" fill="#12161c" stroke="#3b444f" stroke-width="1"/><text x="281.4" y="255" fill="#6f7b88" font-size="11" font-family="Inter,Arial,sans-serif">08</text></g><g><rect x="300.1" y="235" width="25.6" height="205" fill="#101419" stroke="#3b444f" stroke-width="1"/><text x="307.1" y="255" fill="#6f7b88" font-size="11" font-family="Inter,Arial,sans-serif">09</text></g><g><rect x="325.7" y="235" width="25.6" height="205" fill="#12161c" stroke="#a493b1" stroke-width="2.5"/><text x="332.7" y="255" fill="#6f7b88" font-size="11" font-family="Inter,Arial,sans-serif">10</text></g><g><rect x="351.3" y="235" width="25.6" height="205" fill="#101419" stroke="#3b444f" stroke-width="1"/><text x="358.3" y="255" fill="#6f7b88" font-size="11" font-family="Inter,Arial,sans-serif">11</text></g><g><rect x="377.0" y="235" width="25.6" height="205" fill="#12161c" stroke="#3b444f" stroke-width="1"/><text x="384.0" y="255" fill="#6f7b88" font-size="11" font-family="Inter,Arial,sans-serif">12</text></g><g><rect x="402.6" y="235" width="25.6" height="205" fill="#101419" stroke="#3b444f" stroke-width="1"/><text x="409.6" y="255" fill="#6f7b88" font-size="11" font-family="Inter,Arial,sans-serif">13</text></g><g><rect x="428.3" y="235" width="25.6" height="205" fill="#12161c" stroke="#3b444f" stroke-width="1"/><text x="435.3" y="255" fill="#6f7b88" font-size="11" font-family="Inter,Arial,sans-serif">14</text></g><g><rect x="453.9" y="235" width="25.6" height="205" fill="#101419" stroke="#3b444f" stroke-width="1"/><text x="460.9" y="255" fill="#6f7b88" font-size="11" font-family="Inter,Arial,sans-serif">15</text></g><g><rect x="479.5" y="235" width="25.6" height="205" fill="#12161c" stroke="#3b444f" stroke-width="1"/><text x="486.5" y="255" fill="#6f7b88" font-size="11" font-family="Inter,Arial,sans-serif">16</text></g><g><rect x="505.2" y="235" width="25.6" height="205" fill="#101419" stroke="#3b444f" stroke-width="1"/><text x="512.2" y="255" fill="#6f7b88" font-size="11" font-family="Inter,Arial,sans-serif">17</text></g><g><rect x="530.8" y="235" width="25.6" height="205" fill="#12161c" stroke="#3b444f" stroke-width="1"/><text x="537.8" y="255" fill="#6f7b88" font-size="11" font-family="Inter,Arial,sans-serif">18</text></g><g><rect x="556.4" y="235" width="25.6" height="205" fill="#101419" stroke="#3b444f" stroke-width="1"/><text x="563.4" y="255" fill="#6f7b88" font-size="11" font-family="Inter,Arial,sans-serif">19</text></g><g><rect x="582.1" y="235" width="25.6" height="205" fill="#12161c" stroke="#3b444f" stroke-width="1"/><text x="589.1" y="255" fill="#6f7b88" font-size="11" font-family="Inter,Arial,sans-serif">20</text></g><g><rect x="607.7" y="235" width="25.6" height="205" fill="#101419" stroke="#3b444f" stroke-width="1"/><text x="614.7" y="255" fill="#6f7b88" font-size="11" font-family="Inter,Arial,sans-serif">21</text></g><g><rect x="633.3" y="235" width="25.6" height="205" fill="#12161c" stroke="#3b444f" stroke-width="1"/><text x="640.3" y="255" fill="#6f7b88" font-size="11" font-family="Inter,Arial,sans-serif">22</text></g><g><rect x="659.0" y="235" width="25.6" height="205" fill="#101419" stroke="#3b444f" stroke-width="1"/><text x="666.0" y="255" fill="#6f7b88" font-size="11" font-family="Inter,Arial,sans-serif">23</text></g><g><rect x="684.6" y="235" width="25.6" height="205" fill="#12161c" stroke="#3b444f" stroke-width="1"/><text x="691.6" y="255" fill="#6f7b88" font-size="11" font-family="Inter,Arial,sans-serif">24</text></g><g><rect x="710.2" y="235" width="25.6" height="205" fill="#101419" stroke="#3b444f" stroke-width="1"/><text x="717.2" y="255" fill="#6f7b88" font-size="11" font-family="Inter,Arial,sans-serif">25</text></g><g><rect x="735.9" y="235" width="25.6" height="205" fill="#12161c" stroke="#3b444f" stroke-width="1"/><text x="742.9" y="255" fill="#6f7b88" font-size="11" font-family="Inter,Arial,sans-serif">26</text></g><g><rect x="761.5" y="235" width="25.6" height="205" fill="#101419" stroke="#3b444f" stroke-width="1"/><text x="768.5" y="255" fill="#6f7b88" font-size="11" font-family="Inter,Arial,sans-serif">27</text></g><g><rect x="787.1" y="235" width="25.6" height="205" fill="#12161c" stroke="#3b444f" stroke-width="1"/><text x="794.1" y="255" fill="#6f7b88" font-size="11" font-family="Inter,Arial,sans-serif">28</text></g><g><rect x="812.8" y="235" width="25.6" height="205" fill="#101419" stroke="#3b444f" stroke-width="1"/><text x="819.8" y="255" fill="#6f7b88" font-size="11" font-family="Inter,Arial,sans-serif">29</text></g><g><rect x="838.4" y="235" width="25.6" height="205" fill="#12161c" stroke="#3b444f" stroke-width="1"/><text x="845.4" y="255" fill="#6f7b88" font-size="11" font-family="Inter,Arial,sans-serif">30</text></g><g><rect x="864.0" y="235" width="25.6" height="205" fill="#101419" stroke="#3b444f" stroke-width="1"/><text x="871.0" y="255" fill="#6f7b88" font-size="11" font-family="Inter,Arial,sans-serif">31</text></g><g><rect x="889.7" y="235" width="25.6" height="205" fill="#12161c" stroke="#3b444f" stroke-width="1"/><text x="896.7" y="255" fill="#6f7b88" font-size="11" font-family="Inter,Arial,sans-serif">32</text></g><g><rect x="915.3" y="235" width="25.6" height="205" fill="#101419" stroke="#3b444f" stroke-width="1"/><text x="922.3" y="255" fill="#6f7b88" font-size="11" font-family="Inter,Arial,sans-serif">33</text></g><g><rect x="941.0" y="235" width="25.6" height="205" fill="#12161c" stroke="#3b444f" stroke-width="1"/><text x="948.0" y="255" fill="#6f7b88" font-size="11" font-family="Inter,Arial,sans-serif">34</text></g><g><rect x="966.6" y="235" width="25.6" height="205" fill="#101419" stroke="#3b444f" stroke-width="1"/><text x="973.6" y="255" fill="#6f7b88" font-size="11" font-family="Inter,Arial,sans-serif">35</text></g><g><rect x="992.2" y="235" width="25.6" height="205" fill="#12161c" stroke="#3b444f" stroke-width="1"/><text x="999.2" y="255" fill="#6f7b88" font-size="11" font-family="Inter,Arial,sans-serif">36</text></g><g><rect x="1017.9" y="235" width="25.6" height="205" fill="#101419" stroke="#3b444f" stroke-width="1"/><text x="1024.9" y="255" fill="#6f7b88" font-size="11" font-family="Inter,Arial,sans-serif">37</text></g><g><rect x="1043.5" y="235" width="25.6" height="205" fill="#12161c" stroke="#3b444f" stroke-width="1"/><text x="1050.5" y="255" fill="#6f7b88" font-size="11" font-family="Inter,Arial,sans-serif">38</text></g><g><rect x="1069.1" y="235" width="25.6" height="205" fill="#101419" stroke="#3b444f" stroke-width="1"/><text x="1076.1" y="255" fill="#6f7b88" font-size="11" font-family="Inter,Arial,sans-serif">39</text></g><g><rect x="1094.8" y="235" width="25.6" height="205" fill="#12161c" stroke="#3b444f" stroke-width="1"/><text x="1101.8" y="255" fill="#6f7b88" font-size="11" font-family="Inter,Arial,sans-serif">40</text></g><g><rect x="1120.4" y="235" width="25.6" height="205" fill="#101419" stroke="#3b444f" stroke-width="1"/><text x="1127.4" y="255" fill="#6f7b88" font-size="11" font-family="Inter,Arial,sans-serif">41</text></g><g><rect x="1146.0" y="235" width="25.6" height="205" fill="#12161c" stroke="#a493b1" stroke-width="2.5"/><text x="1153.0" y="255" fill="#6f7b88" font-size="11" font-family="Inter,Arial,sans-serif">42</text></g><g><rect x="1171.7" y="235" width="25.6" height="205" fill="#101419" stroke="#3b444f" stroke-width="1"/><text x="1178.7" y="255" fill="#6f7b88" font-size="11" font-family="Inter,Arial,sans-serif">43</text></g><g><rect x="1197.3" y="235" width="25.6" height="205" fill="#12161c" stroke="#3b444f" stroke-width="1"/><text x="1204.3" y="255" fill="#6f7b88" font-size="11" font-family="Inter,Arial,sans-serif">44</text></g><g><rect x="1222.9" y="235" width="25.6" height="205" fill="#101419" stroke="#3b444f" stroke-width="1"/><text x="1229.9" y="255" fill="#6f7b88" font-size="11" font-family="Inter,Arial,sans-serif">45</text></g><g><rect x="1248.6" y="235" width="25.6" height="205" fill="#12161c" stroke="#3b444f" stroke-width="1"/><text x="1255.6" y="255" fill="#6f7b88" font-size="11" font-family="Inter,Arial,sans-serif">46</text></g><g><rect x="1274.2" y="235" width="25.6" height="205" fill="#101419" stroke="#3b444f" stroke-width="1"/><text x="1281.2" y="255" fill="#6f7b88" font-size="11" font-family="Inter,Arial,sans-serif">47</text></g><g><rect x="1299.8" y="235" width="25.6" height="205" fill="#12161c" stroke="#3b444f" stroke-width="1"/><text x="1306.8" y="255" fill="#6f7b88" font-size="11" font-family="Inter,Arial,sans-serif">48</text></g><g><rect x="1325.5" y="235" width="25.6" height="205" fill="#101419" stroke="#3b444f" stroke-width="1"/><text x="1332.5" y="255" fill="#6f7b88" font-size="11" font-family="Inter,Arial,sans-serif">49</text></g><g><rect x="1351.1" y="235" width="25.6" height="205" fill="#12161c" stroke="#3b444f" stroke-width="1"/><text x="1358.1" y="255" fill="#6f7b88" font-size="11" font-family="Inter,Arial,sans-serif">50</text></g><g><rect x="1376.7" y="235" width="25.6" height="205" fill="#101419" stroke="#3b444f" stroke-width="1"/><text x="1383.7" y="255" fill="#6f7b88" font-size="11" font-family="Inter,Arial,sans-serif">51</text></g><g><rect x="1402.4" y="235" width="25.6" height="205" fill="#12161c" stroke="#3b444f" stroke-width="1"/><text x="1409.4" y="255" fill="#6f7b88" font-size="11" font-family="Inter,Arial,sans-serif">52</text></g><g><rect x="1428.0" y="235" width="25.6" height="205" fill="#12202d" stroke="#6fa6d8" stroke-width="1"/><text x="1435.0" y="255" fill="#6f7b88" font-size="11" font-family="Inter,Arial,sans-serif">53</text></g><g><rect x="1453.7" y="235" width="25.6" height="205" fill="#12202d" stroke="#6fa6d8" stroke-width="1"/><text x="1460.7" y="255" fill="#6f7b88" font-size="11" font-family="Inter,Arial,sans-serif">54</text></g><g><rect x="1479.3" y="235" width="25.6" height="205" fill="#12202d" stroke="#6fa6d8" stroke-width="1"/><text x="1486.3" y="255" fill="#6f7b88" font-size="11" font-family="Inter,Arial,sans-serif">55</text></g><g><rect x="1504.9" y="235" width="25.6" height="205" fill="#12161c" stroke="#3b444f" stroke-width="1"/><text x="1511.9" y="255" fill="#6f7b88" font-size="11" font-family="Inter,Arial,sans-serif">56</text></g><g><rect x="1530.6" y="235" width="25.6" height="205" fill="#101419" stroke="#3b444f" stroke-width="1"/><text x="1537.6" y="255" fill="#6f7b88" font-size="11" font-family="Inter,Arial,sans-serif">57</text></g><g><rect x="1556.2" y="235" width="25.6" height="205" fill="#12161c" stroke="#3b444f" stroke-width="1"/><text x="1563.2" y="255" fill="#6f7b88" font-size="11" font-family="Inter,Arial,sans-serif">58</text></g><g><rect x="1581.8" y="235" width="25.6" height="205" fill="#101419" stroke="#3b444f" stroke-width="1"/><text x="1588.8" y="255" fill="#6f7b88" font-size="11" font-family="Inter,Arial,sans-serif">59</text></g><g><rect x="1607.5" y="235" width="25.6" height="205" fill="#12161c" stroke="#3b444f" stroke-width="1"/><text x="1614.5" y="255" fill="#6f7b88" font-size="11" font-family="Inter,Arial,sans-serif">60</text></g><g><rect x="1633.1" y="235" width="25.6" height="205" fill="#101419" stroke="#3b444f" stroke-width="1"/><text x="1640.1" y="255" fill="#6f7b88" font-size="11" font-family="Inter,Arial,sans-serif">61</text></g><g><rect x="1658.7" y="235" width="25.6" height="205" fill="#12161c" stroke="#3b444f" stroke-width="1"/><text x="1665.7" y="255" fill="#6f7b88" font-size="11" font-family="Inter,Arial,sans-serif">62</text></g><g><rect x="1684.4" y="235" width="25.6" height="205" fill="#101419" stroke="#3b444f" stroke-width="1"/><text x="1691.4" y="255" fill="#6f7b88" font-size="11" font-family="Inter,Arial,sans-serif">63</text></g>
  <path d="M 1440.8 215 L 1440.8 203 L 1466.5 203 L 1466.5 215" fill="none" stroke="#6fa6d8" stroke-width="2"/><path d="M 1466.5 215 L 1466.5 203 L 1492.1 203 L 1492.1 215" fill="none" stroke="#6fa6d8" stroke-width="2"/>
  <text x="95" y="488" fill="#737e8a" font-size="12" font-family="Inter,Arial,sans-serif">STRUCTURE · SECONDARY EDITORIAL LENS</text>
  <g><rect x="95.0" y="500" width="615.2" height="62" fill="#111821"/><text x="103.0" y="537" fill="#8b96a3" font-size="13" font-family="Inter,Arial,sans-serif" letter-spacing="1">GROUND</text></g><g><rect x="710.2" y="500" width="794.7" height="62" fill="#14161d"/><text x="718.2" y="537" fill="#8b96a3" font-size="13" font-family="Inter,Arial,sans-serif" letter-spacing="1">TILT</text></g><g><rect x="1504.9" y="500" width="205.1" height="62" fill="#111821"/><text x="1512.9" y="537" fill="#8b96a3" font-size="13" font-family="Inter,Arial,sans-serif" letter-spacing="1">ESCAPE</text></g>
  <text x="95" y="640" fill="#737e8a" font-size="12" font-family="Inter,Arial,sans-serif">TEMPO · METADATA</text>
  <line x1="95" x2="1710" y1="785" y2="785" stroke="#2c343e"/>
  <polyline points="133.5,728.5 159.1,728.5 287.3,742.6 312.9,735.6 492.3,770.9 518.0,700.3 594.9,700.3 748.7,721.5 825.6,770.9 902.5,714.4 953.8,707.4 979.4,728.5 1133.2,700.3 1184.5,714.4 1312.7,714.4 1440.8,679.1 1466.5,700.3 1492.1,721.5" fill="none" stroke="#7f8b99" stroke-width="2"/><circle cx="133.5" cy="728.5" r="3" fill="#a6afb9"/><circle cx="159.1" cy="728.5" r="3" fill="#a6afb9"/><circle cx="287.3" cy="742.6" r="3" fill="#a6afb9"/><circle cx="312.9" cy="735.6" r="3" fill="#a6afb9"/><circle cx="492.3" cy="770.9" r="3" fill="#a6afb9"/><circle cx="518.0" cy="700.3" r="3" fill="#a6afb9"/><circle cx="594.9" cy="700.3" r="3" fill="#a6afb9"/><circle cx="748.7" cy="721.5" r="3" fill="#a6afb9"/><circle cx="825.6" cy="770.9" r="3" fill="#a6afb9"/><circle cx="902.5" cy="714.4" r="3" fill="#a6afb9"/><circle cx="953.8" cy="707.4" r="3" fill="#a6afb9"/><circle cx="979.4" cy="728.5" r="3" fill="#a6afb9"/><circle cx="1133.2" cy="700.3" r="3" fill="#a6afb9"/><circle cx="1184.5" cy="714.4" r="3" fill="#a6afb9"/><circle cx="1312.7" cy="714.4" r="3" fill="#a6afb9"/><circle cx="1440.8" cy="679.1" r="3" fill="#a6afb9"/><circle cx="1466.5" cy="700.3" r="3" fill="#a6afb9"/><circle cx="1492.1" cy="721.5" r="3" fill="#a6afb9"/>
  <text x="95" y="836" fill="#626d78" font-size="13" font-family="Inter,Arial,sans-serif">Direction fallback may come from existing editorial roles/labels. UNKNOWN dimensions stay unknown; see the detailed site for provenance and five-track context.</text>
</svg>